<svg width="86" height="78" viewBox="0 0 86 78" fill="none" xmlns="http://www.w3.org/2000/svg">
<g filter="url(#filter0_d_4_2368)">
<path d="M7 2.5C4.51472 2.5 2.5 4.51472 2.5 7V67C2.5 69.4853 4.51472 71.5 7 71.5H74.907C77.3923 71.5 79.407 69.4853 79.407 67V7C79.407 4.51472 77.3923 2.5 74.907 2.5H7Z" fill="white" stroke="#ABABAB"/>
<rect x="7.74414" y="12.4883" width="31.6279" height="6.32558" rx="3.16279" fill="#ABABAB"/>
<rect x="42.5349" y="12.4883" width="31.6279" height="6.32558" rx="3.16279" fill="#ABABAB"/>
<rect x="7.74414" y="25.1396" width="66.4186" height="3.16279" rx="1.5814" fill="#ABABAB"/>
<rect x="7.74414" y="29.8838" width="66.4186" height="3.16279" rx="1.5814" fill="#ABABAB"/>
<rect x="7.74414" y="34.6279" width="66.4186" height="3.16279" rx="1.5814" fill="#ABABAB"/>
<rect x="7.74414" y="39.3721" width="66.4186" height="3.16279" rx="1.5814" fill="#ABABAB"/>
<rect x="7.74414" y="44.1162" width="66.4186" height="3.16279" rx="1.5814" fill="#ABABAB"/>
<rect x="7.74414" y="48.8604" width="66.4186" height="3.16279" rx="1.5814" fill="#ABABAB"/>
<path d="M12.7348 58.7915L10.186 66.186H8.64495L11.8559 57.6548H12.8403L12.7348 58.7915ZM14.8676 66.186L12.3129 58.7915L12.2016 57.6548H13.1918L16.4145 66.186H14.8676ZM14.7446 63.022V64.188H10.1039V63.022H14.7446ZM22.0512 57.6548H23.516V63.356C23.516 64.0044 23.3754 64.5474 23.0942 64.9849C22.8129 65.4224 22.4301 65.7524 21.9457 65.9751C21.4653 66.1938 20.9282 66.3032 20.3344 66.3032C19.7211 66.3032 19.1742 66.1938 18.6938 65.9751C18.2133 65.7524 17.8344 65.4224 17.5571 64.9849C17.2836 64.5474 17.1469 64.0044 17.1469 63.356V57.6548H18.6117V63.356C18.6117 63.7661 18.6821 64.104 18.8227 64.3696C18.9633 64.6313 19.1625 64.8247 19.4203 64.9497C19.6782 65.0747 19.9828 65.1372 20.3344 65.1372C20.686 65.1372 20.9887 65.0747 21.2426 64.9497C21.5004 64.8247 21.6996 64.6313 21.8403 64.3696C21.9809 64.104 22.0512 63.7661 22.0512 63.356V57.6548ZM28.6254 57.6548V66.186H27.1664V57.6548H28.6254ZM31.3032 57.6548V58.8267H24.5121V57.6548H31.3032ZM38.0649 61.2173V62.3833H33.5356V61.2173H38.0649ZM33.8989 57.6548V66.186H32.4282V57.6548H33.8989ZM39.1957 57.6548V66.186H37.7309V57.6548H39.1957ZM47.7504 61.686V62.1548C47.7504 62.7993 47.6664 63.3774 47.4985 63.8892C47.3305 64.4009 47.0903 64.8364 46.7778 65.1958C46.4692 65.5552 46.0981 65.8306 45.6645 66.022C45.2309 66.2095 44.7504 66.3032 44.2231 66.3032C43.6996 66.3032 43.2211 66.2095 42.7875 66.022C42.3578 65.8306 41.9848 65.5552 41.6684 65.1958C41.352 64.8364 41.1059 64.4009 40.9301 63.8892C40.7582 63.3774 40.6723 62.7993 40.6723 62.1548V61.686C40.6723 61.0415 40.7582 60.4653 40.9301 59.9575C41.102 59.4458 41.3442 59.0103 41.6567 58.6509C41.9731 58.2876 42.3461 58.0122 42.7758 57.8247C43.2094 57.6333 43.6879 57.5376 44.2114 57.5376C44.7387 57.5376 45.2192 57.6333 45.6528 57.8247C46.0864 58.0122 46.4594 58.2876 46.7719 58.6509C47.0844 59.0103 47.3246 59.4458 47.4926 59.9575C47.6645 60.4653 47.7504 61.0415 47.7504 61.686ZM46.2797 62.1548V61.6743C46.2797 61.1978 46.2328 60.7778 46.1391 60.4146C46.0492 60.0474 45.9145 59.7407 45.7348 59.4946C45.559 59.2446 45.3422 59.0571 45.0844 58.9321C44.8266 58.8032 44.5356 58.7388 44.2114 58.7388C43.8871 58.7388 43.5981 58.8032 43.3442 58.9321C43.0903 59.0571 42.8735 59.2446 42.6938 59.4946C42.518 59.7407 42.3832 60.0474 42.2895 60.4146C42.1957 60.7778 42.1489 61.1978 42.1489 61.6743V62.1548C42.1489 62.6313 42.1957 63.0532 42.2895 63.4204C42.3832 63.7876 42.5199 64.0981 42.6996 64.3521C42.8832 64.6021 43.102 64.7915 43.3559 64.9204C43.6098 65.0454 43.8989 65.1079 44.2231 65.1079C44.5512 65.1079 44.8422 65.0454 45.0961 64.9204C45.35 64.7915 45.5649 64.6021 45.7407 64.3521C45.9164 64.0981 46.0492 63.7876 46.1391 63.4204C46.2328 63.0532 46.2797 62.6313 46.2797 62.1548ZM49.2211 57.6548H52.2387C52.8871 57.6548 53.4399 57.7524 53.8969 57.9478C54.3539 58.1431 54.7035 58.4321 54.9457 58.8149C55.1918 59.1938 55.3149 59.6626 55.3149 60.2212C55.3149 60.647 55.2367 61.022 55.0805 61.3462C54.9242 61.6704 54.7035 61.9438 54.4184 62.1665C54.1332 62.3853 53.7934 62.5552 53.3989 62.6763L52.9535 62.8931H50.2407L50.2289 61.7271H52.2621C52.6137 61.7271 52.9067 61.6646 53.141 61.5396C53.3754 61.4146 53.5512 61.2446 53.6684 61.0298C53.7895 60.811 53.85 60.5649 53.85 60.2915C53.85 59.9946 53.7914 59.7368 53.6742 59.5181C53.561 59.2954 53.3852 59.1255 53.1469 59.0083C52.9086 58.8872 52.6059 58.8267 52.2387 58.8267H50.6918V66.186H49.2211V57.6548ZM54.0903 66.186L52.0864 62.354L53.6274 62.3481L55.6606 66.1099V66.186H54.0903ZM58.35 57.6548V66.186H56.8793V57.6548H58.35ZM64.6664 63.9888C64.6664 63.813 64.6391 63.6567 64.5844 63.52C64.5336 63.3833 64.4418 63.2583 64.309 63.145C64.1762 63.0317 63.9887 62.9224 63.7465 62.8169C63.5082 62.7075 63.2035 62.5962 62.8324 62.4829C62.4262 62.3579 62.0512 62.2192 61.7074 62.0669C61.3676 61.9106 61.0707 61.731 60.8168 61.5278C60.5629 61.3208 60.3657 61.0845 60.225 60.8188C60.0844 60.5493 60.0141 60.2388 60.0141 59.8872C60.0141 59.5396 60.0864 59.2231 60.2309 58.938C60.3793 58.6528 60.5883 58.4067 60.8578 58.1997C61.1313 57.9888 61.4535 57.8267 61.8246 57.7134C62.1957 57.5962 62.6059 57.5376 63.0551 57.5376C63.6879 57.5376 64.2328 57.6548 64.6899 57.8892C65.1508 58.1235 65.5043 58.438 65.7504 58.8325C66.0004 59.2271 66.1254 59.6626 66.1254 60.1392H64.6664C64.6664 59.8579 64.6059 59.6099 64.4848 59.395C64.3676 59.1763 64.1879 59.0044 63.9457 58.8794C63.7074 58.7544 63.4047 58.6919 63.0375 58.6919C62.6899 58.6919 62.4008 58.7446 62.1703 58.8501C61.9399 58.9556 61.768 59.0981 61.6547 59.2778C61.5414 59.4575 61.4848 59.6606 61.4848 59.8872C61.4848 60.0474 61.5219 60.1938 61.5961 60.3267C61.6703 60.4556 61.7836 60.5767 61.936 60.6899C62.0883 60.7993 62.2797 60.9028 62.5102 61.0005C62.7407 61.0981 63.0121 61.1919 63.3246 61.2817C63.7973 61.4224 64.2094 61.5786 64.561 61.7505C64.9125 61.9185 65.2055 62.1099 65.4399 62.3247C65.6742 62.5396 65.85 62.7837 65.9672 63.0571C66.0844 63.3267 66.143 63.6333 66.143 63.9771C66.143 64.3364 66.0707 64.6606 65.9262 64.9497C65.7817 65.2349 65.5746 65.479 65.3051 65.6821C65.0395 65.8813 64.7192 66.0356 64.3442 66.145C63.9731 66.2505 63.559 66.3032 63.102 66.3032C62.6918 66.3032 62.2875 66.2485 61.8891 66.1392C61.4946 66.0298 61.1352 65.8638 60.811 65.6411C60.4867 65.4146 60.2289 65.1333 60.0375 64.7974C59.8461 64.4575 59.7504 64.061 59.7504 63.6079H61.2211C61.2211 63.8853 61.268 64.1216 61.3617 64.3169C61.4594 64.5122 61.5942 64.6724 61.766 64.7974C61.9379 64.9185 62.1371 65.0083 62.3637 65.0669C62.5942 65.1255 62.8403 65.1548 63.102 65.1548C63.4457 65.1548 63.7328 65.106 63.9633 65.0083C64.1977 64.9106 64.3735 64.7739 64.4907 64.5981C64.6078 64.4224 64.6664 64.2192 64.6664 63.9888ZM73.0278 65.02V66.186H68.4985V65.02H73.0278ZM68.9145 57.6548V66.186H67.4438V57.6548H68.9145ZM72.436 61.2173V62.3657H68.4985V61.2173H72.436ZM72.9985 57.6548V58.8267H68.4985V57.6548H72.9985Z" fill="#777777"/>
</g>
<defs>
<filter id="filter0_d_4_2368" x="0" y="0" width="85.907" height="78" filterUnits="userSpaceOnUse" color-interpolation-filters="sRGB">
<feFlood flood-opacity="0" result="BackgroundImageFix"/>
<feColorMatrix in="SourceAlpha" type="matrix" values="0 0 0 0 0 0 0 0 0 0 0 0 0 0 0 0 0 0 127 0" result="hardAlpha"/>
<feOffset dx="2" dy="2"/>
<feGaussianBlur stdDeviation="2"/>
<feComposite in2="hardAlpha" operator="out"/>
<feColorMatrix type="matrix" values="0 0 0 0 0 0 0 0 0 0 0 0 0 0 0 0 0 0 0.25 0"/>
<feBlend mode="normal" in2="BackgroundImageFix" result="effect1_dropShadow_4_2368"/>
<feBlend mode="normal" in="SourceGraphic" in2="effect1_dropShadow_4_2368" result="shape"/>
</filter>
</defs>
</svg>
