<svg width="28" height="33" viewBox="0 0 28 33" fill="none" xmlns="http://www.w3.org/2000/svg">
<path d="M27 13.9415H1M19.7778 1.97095V7.95624M8.22222 1.97095V7.95624M7.93333 31.8974H20.0667C22.4936 31.8974 23.707 31.8974 24.634 31.4081C25.4494 30.9778 26.1122 30.2911 26.5277 29.4464C27 28.4861 27 27.2292 27 24.7151V12.1459C27 9.63188 27 8.37485 26.5277 7.41461C26.1122 6.56995 25.4494 5.88323 24.634 5.45286C23.707 4.96359 22.4936 4.96359 20.0667 4.96359H7.93333C5.50644 4.96359 4.29299 4.96359 3.36604 5.45286C2.55067 5.88323 1.88776 6.56995 1.4723 7.41461C1 8.37485 1 9.63188 1 12.1459V24.7151C1 27.2292 1 28.4861 1.4723 29.4464C1.88776 30.2911 2.55067 30.9778 3.36604 31.4081C4.29299 31.8974 5.50644 31.8974 7.93333 31.8974Z" stroke="black" stroke-width="2" stroke-linecap="round" stroke-linejoin="round"/>
</svg>
