<svg width="44" height="21" viewBox="0 0 44 21" fill="none" xmlns="http://www.w3.org/2000/svg">
<rect x="0.5" y="0.5" width="43" height="20" rx="3.5" fill="url(#paint0_radial_401_296)" stroke="#BE9A1B"/>
<g filter="url(#filter0_d_401_296)">
<path d="M12.4102 12.2871H13.5352C13.4766 12.8262 13.3223 13.3086 13.0723 13.7344C12.8223 14.1602 12.4688 14.498 12.0117 14.748C11.5547 14.9941 10.9844 15.1172 10.3008 15.1172C9.80078 15.1172 9.3457 15.0234 8.93555 14.8359C8.5293 14.6484 8.17969 14.3828 7.88672 14.0391C7.59375 13.6914 7.36719 13.2754 7.20703 12.791C7.05078 12.3027 6.97266 11.7598 6.97266 11.1621V10.3125C6.97266 9.71484 7.05078 9.17383 7.20703 8.68945C7.36719 8.20117 7.5957 7.7832 7.89258 7.43555C8.19336 7.08789 8.55469 6.82031 8.97656 6.63281C9.39844 6.44531 9.87305 6.35156 10.4004 6.35156C11.0449 6.35156 11.5898 6.47266 12.0352 6.71484C12.4805 6.95703 12.8262 7.29297 13.0723 7.72266C13.3223 8.14844 13.4766 8.64258 13.5352 9.20508H12.4102C12.3555 8.80664 12.2539 8.46484 12.1055 8.17969C11.957 7.89062 11.7461 7.66797 11.4727 7.51172C11.1992 7.35547 10.8418 7.27734 10.4004 7.27734C10.0215 7.27734 9.6875 7.34961 9.39844 7.49414C9.11328 7.63867 8.87305 7.84375 8.67773 8.10938C8.48633 8.375 8.3418 8.69336 8.24414 9.06445C8.14648 9.43555 8.09766 9.84766 8.09766 10.3008V11.1621C8.09766 11.5801 8.14062 11.9727 8.22656 12.3398C8.31641 12.707 8.45117 13.0293 8.63086 13.3066C8.81055 13.584 9.03906 13.8027 9.31641 13.9629C9.59375 14.1191 9.92188 14.1973 10.3008 14.1973C10.7812 14.1973 11.1641 14.1211 11.4492 13.9688C11.7344 13.8164 11.9492 13.5977 12.0938 13.3125C12.2422 13.0273 12.3477 12.6855 12.4102 12.2871ZM21.6445 10.4648V11.0039C21.6445 11.6445 21.5645 12.2188 21.4043 12.7266C21.2441 13.2344 21.0137 13.666 20.7129 14.0215C20.4121 14.377 20.0508 14.6484 19.6289 14.8359C19.2109 15.0234 18.7422 15.1172 18.2227 15.1172C17.7188 15.1172 17.2559 15.0234 16.834 14.8359C16.416 14.6484 16.0527 14.377 15.7441 14.0215C15.4395 13.666 15.2031 13.2344 15.0352 12.7266C14.8672 12.2188 14.7832 11.6445 14.7832 11.0039V10.4648C14.7832 9.82422 14.8652 9.25195 15.0293 8.74805C15.1973 8.24023 15.4336 7.80859 15.7383 7.45312C16.043 7.09375 16.4043 6.82031 16.8223 6.63281C17.2441 6.44531 17.707 6.35156 18.2109 6.35156C18.7305 6.35156 19.1992 6.44531 19.6172 6.63281C20.0391 6.82031 20.4004 7.09375 20.7012 7.45312C21.0059 7.80859 21.2383 8.24023 21.3984 8.74805C21.5625 9.25195 21.6445 9.82422 21.6445 10.4648ZM20.5254 11.0039V10.4531C20.5254 9.94531 20.4727 9.49609 20.3672 9.10547C20.2656 8.71484 20.1152 8.38672 19.916 8.12109C19.7168 7.85547 19.4727 7.6543 19.1836 7.51758C18.8984 7.38086 18.5742 7.3125 18.2109 7.3125C17.8594 7.3125 17.541 7.38086 17.2559 7.51758C16.9746 7.6543 16.7324 7.85547 16.5293 8.12109C16.3301 8.38672 16.1758 8.71484 16.0664 9.10547C15.957 9.49609 15.9023 9.94531 15.9023 10.4531V11.0039C15.9023 11.5156 15.957 11.9688 16.0664 12.3633C16.1758 12.7539 16.332 13.084 16.5352 13.3535C16.7422 13.6191 16.9863 13.8203 17.2676 13.957C17.5527 14.0938 17.8711 14.1621 18.2227 14.1621C18.5898 14.1621 18.916 14.0938 19.2012 13.957C19.4863 13.8203 19.7266 13.6191 19.9219 13.3535C20.1211 13.084 20.2715 12.7539 20.373 12.3633C20.4746 11.9688 20.5254 11.5156 20.5254 11.0039ZM29.9004 6.46875V15H28.7637L24.4688 8.41992V15H23.3379V6.46875H24.4688L28.7812 13.0664V6.46875H29.9004ZM37.0547 12.2871H38.1797C38.1211 12.8262 37.9668 13.3086 37.7168 13.7344C37.4668 14.1602 37.1133 14.498 36.6562 14.748C36.1992 14.9941 35.6289 15.1172 34.9453 15.1172C34.4453 15.1172 33.9902 15.0234 33.5801 14.8359C33.1738 14.6484 32.8242 14.3828 32.5312 14.0391C32.2383 13.6914 32.0117 13.2754 31.8516 12.791C31.6953 12.3027 31.6172 11.7598 31.6172 11.1621V10.3125C31.6172 9.71484 31.6953 9.17383 31.8516 8.68945C32.0117 8.20117 32.2402 7.7832 32.5371 7.43555C32.8379 7.08789 33.1992 6.82031 33.6211 6.63281C34.043 6.44531 34.5176 6.35156 35.0449 6.35156C35.6895 6.35156 36.2344 6.47266 36.6797 6.71484C37.125 6.95703 37.4707 7.29297 37.7168 7.72266C37.9668 8.14844 38.1211 8.64258 38.1797 9.20508H37.0547C37 8.80664 36.8984 8.46484 36.75 8.17969C36.6016 7.89062 36.3906 7.66797 36.1172 7.51172C35.8438 7.35547 35.4863 7.27734 35.0449 7.27734C34.666 7.27734 34.332 7.34961 34.043 7.49414C33.7578 7.63867 33.5176 7.84375 33.3223 8.10938C33.1309 8.375 32.9863 8.69336 32.8887 9.06445C32.791 9.43555 32.7422 9.84766 32.7422 10.3008V11.1621C32.7422 11.5801 32.7852 11.9727 32.8711 12.3398C32.9609 12.707 33.0957 13.0293 33.2754 13.3066C33.4551 13.584 33.6836 13.8027 33.9609 13.9629C34.2383 14.1191 34.5664 14.1973 34.9453 14.1973C35.4258 14.1973 35.8086 14.1211 36.0938 13.9688C36.3789 13.8164 36.5938 13.5977 36.7383 13.3125C36.8867 13.0273 36.9922 12.6855 37.0547 12.2871Z" fill="white"/>
</g>
<defs>
<filter id="filter0_d_401_296" x="4.97266" y="6.35156" width="35.207" height="12.7656" filterUnits="userSpaceOnUse" color-interpolation-filters="sRGB">
<feFlood flood-opacity="0" result="BackgroundImageFix"/>
<feColorMatrix in="SourceAlpha" type="matrix" values="0 0 0 0 0 0 0 0 0 0 0 0 0 0 0 0 0 0 127 0" result="hardAlpha"/>
<feOffset dy="2"/>
<feGaussianBlur stdDeviation="1"/>
<feComposite in2="hardAlpha" operator="out"/>
<feColorMatrix type="matrix" values="0 0 0 0 0 0 0 0 0 0 0 0 0 0 0 0 0 0 0.35 0"/>
<feBlend mode="normal" in2="BackgroundImageFix" result="effect1_dropShadow_401_296"/>
<feBlend mode="normal" in="SourceGraphic" in2="effect1_dropShadow_401_296" result="shape"/>
</filter>
<radialGradient id="paint0_radial_401_296" cx="0" cy="0" r="1" gradientUnits="userSpaceOnUse" gradientTransform="translate(22 10.5) rotate(90) scale(10.5 22)">
<stop stop-color="#F79400"/>
<stop offset="1" stop-color="#FFBE16"/>
</radialGradient>
</defs>
</svg>
