<svg width="100" height="94" viewBox="0 0 100 94" fill="none" xmlns="http://www.w3.org/2000/svg">
<g filter="url(#filter0_d_241_1299)">
<path d="M7 2.5C4.51472 2.5 2.5 4.51473 2.5 7.00001V82.87C2.5 85.3553 4.51472 87.37 7 87.37H89C91.4853 87.37 93.5 85.3552 93.5 82.87V7C93.5 4.51472 91.4853 2.5 89 2.5H7Z" fill="white" stroke="#ABABAB"/>
<path d="M47.7773 35.0566V37H40.6387V35.0566H47.7773ZM41.3223 22.7812V37H38.8711V22.7812H41.3223ZM48.9883 31.834V31.6094C48.9883 30.8477 49.099 30.1413 49.3203 29.4902C49.5417 28.8327 49.8607 28.263 50.2773 27.7812C50.7005 27.293 51.2148 26.9154 51.8203 26.6484C52.4323 26.375 53.1224 26.2383 53.8906 26.2383C54.6654 26.2383 55.3555 26.375 55.9609 26.6484C56.5729 26.9154 57.0905 27.293 57.5137 27.7812C57.9368 28.263 58.2591 28.8327 58.4805 29.4902C58.7018 30.1413 58.8125 30.8477 58.8125 31.6094V31.834C58.8125 32.5957 58.7018 33.3021 58.4805 33.9531C58.2591 34.6042 57.9368 35.1738 57.5137 35.6621C57.0905 36.1439 56.5762 36.5215 55.9707 36.7949C55.3652 37.0618 54.6784 37.1953 53.9102 37.1953C53.1354 37.1953 52.4421 37.0618 51.8301 36.7949C51.2246 36.5215 50.7103 36.1439 50.2871 35.6621C49.8639 35.1738 49.5417 34.6042 49.3203 33.9531C49.099 33.3021 48.9883 32.5957 48.9883 31.834ZM51.3418 31.6094V31.834C51.3418 32.3092 51.3906 32.7585 51.4883 33.1816C51.5859 33.6048 51.7389 33.9759 51.9473 34.2949C52.1556 34.6139 52.4225 34.8646 52.748 35.0469C53.0736 35.2292 53.4609 35.3203 53.9102 35.3203C54.3464 35.3203 54.724 35.2292 55.043 35.0469C55.3685 34.8646 55.6354 34.6139 55.8438 34.2949C56.0521 33.9759 56.2051 33.6048 56.3027 33.1816C56.4069 32.7585 56.459 32.3092 56.459 31.834V31.6094C56.459 31.1406 56.4069 30.6979 56.3027 30.2812C56.2051 29.8581 56.0488 29.4837 55.834 29.1582C55.6257 28.8327 55.3587 28.5788 55.0332 28.3965C54.7142 28.2077 54.3333 28.1133 53.8906 28.1133C53.4479 28.1133 53.0638 28.2077 52.7383 28.3965C52.4193 28.5788 52.1556 28.8327 51.9473 29.1582C51.7389 29.4837 51.5859 29.8581 51.4883 30.2812C51.3906 30.6979 51.3418 31.1406 51.3418 31.6094ZM45.1309 49.4336H47.2695V59.707C47.2695 60.6576 47.0677 61.4648 46.6641 62.1289C46.2604 62.793 45.6973 63.2975 44.9746 63.6426C44.252 63.9941 43.4154 64.1699 42.4648 64.1699C42.0612 64.1699 41.612 64.1113 41.1172 63.9941C40.6289 63.877 40.1536 63.6882 39.6914 63.4277C39.2357 63.1738 38.8548 62.8385 38.5488 62.4219L39.6523 61.0352C40.0299 61.4844 40.4466 61.8132 40.9023 62.0215C41.3581 62.2298 41.8366 62.334 42.3379 62.334C42.8783 62.334 43.3372 62.2331 43.7148 62.0312C44.099 61.8359 44.3952 61.5462 44.6035 61.1621C44.8118 60.778 44.916 60.3092 44.916 59.7559V51.8262L45.1309 49.4336ZM37.9531 54.834V54.6289C37.9531 53.8281 38.0508 53.099 38.2461 52.4414C38.4414 51.7773 38.7214 51.2077 39.0859 50.7324C39.4505 50.2507 39.8932 49.8828 40.4141 49.6289C40.9349 49.3685 41.5241 49.2383 42.1816 49.2383C42.8652 49.2383 43.4479 49.362 43.9297 49.6094C44.418 49.8568 44.8249 50.2116 45.1504 50.6738C45.4759 51.1296 45.7298 51.6764 45.9121 52.3145C46.1009 52.946 46.2409 53.6491 46.332 54.4238V55.0781C46.2474 55.8333 46.1042 56.5234 45.9023 57.1484C45.7005 57.7734 45.4336 58.3138 45.1016 58.7695C44.7695 59.2253 44.3594 59.5768 43.8711 59.8242C43.3893 60.0716 42.8197 60.1953 42.1621 60.1953C41.5176 60.1953 40.9349 60.0618 40.4141 59.7949C39.8997 59.528 39.457 59.1536 39.0859 58.6719C38.7214 58.1901 38.4414 57.6237 38.2461 56.9727C38.0508 56.3151 37.9531 55.6022 37.9531 54.834ZM40.3066 54.6289V54.834C40.3066 55.3158 40.3522 55.765 40.4434 56.1816C40.541 56.5983 40.6875 56.9661 40.8828 57.2852C41.0846 57.5977 41.3385 57.8451 41.6445 58.0273C41.957 58.2031 42.3249 58.291 42.748 58.291C43.3014 58.291 43.7539 58.1738 44.1055 57.9395C44.4635 57.7051 44.737 57.3893 44.9258 56.9922C45.1211 56.5885 45.2578 56.1393 45.3359 55.6445V53.877C45.2969 53.4928 45.2155 53.1348 45.0918 52.8027C44.9746 52.4707 44.8151 52.181 44.6133 51.9336C44.4115 51.6797 44.1576 51.4844 43.8516 51.3477C43.5456 51.2044 43.1842 51.1328 42.7676 51.1328C42.3444 51.1328 41.9766 51.224 41.6641 51.4062C41.3516 51.5885 41.0944 51.8392 40.8926 52.1582C40.6973 52.4772 40.5508 52.8483 40.4531 53.2715C40.3555 53.6947 40.3066 54.1471 40.3066 54.6289ZM49.2617 54.834V54.6094C49.2617 53.8477 49.3724 53.1413 49.5938 52.4902C49.8151 51.8327 50.1341 51.263 50.5508 50.7812C50.974 50.293 51.4883 49.9154 52.0938 49.6484C52.7057 49.375 53.3958 49.2383 54.1641 49.2383C54.9388 49.2383 55.6289 49.375 56.2344 49.6484C56.8464 49.9154 57.3639 50.293 57.7871 50.7812C58.2103 51.263 58.5326 51.8327 58.7539 52.4902C58.9753 53.1413 59.0859 53.8477 59.0859 54.6094V54.834C59.0859 55.5957 58.9753 56.3021 58.7539 56.9531C58.5326 57.6042 58.2103 58.1738 57.7871 58.6621C57.3639 59.1439 56.8496 59.5215 56.2441 59.7949C55.6387 60.0618 54.9518 60.1953 54.1836 60.1953C53.4089 60.1953 52.7155 60.0618 52.1035 59.7949C51.498 59.5215 50.9837 59.1439 50.5605 58.6621C50.1374 58.1738 49.8151 57.6042 49.5938 56.9531C49.3724 56.3021 49.2617 55.5957 49.2617 54.834ZM51.6152 54.6094V54.834C51.6152 55.3092 51.6641 55.7585 51.7617 56.1816C51.8594 56.6048 52.0124 56.9759 52.2207 57.2949C52.429 57.6139 52.696 57.8646 53.0215 58.0469C53.347 58.2292 53.7344 58.3203 54.1836 58.3203C54.6198 58.3203 54.9974 58.2292 55.3164 58.0469C55.6419 57.8646 55.9089 57.6139 56.1172 57.2949C56.3255 56.9759 56.4785 56.6048 56.5762 56.1816C56.6803 55.7585 56.7324 55.3092 56.7324 54.834V54.6094C56.7324 54.1406 56.6803 53.6979 56.5762 53.2812C56.4785 52.8581 56.3223 52.4837 56.1074 52.1582C55.8991 51.8327 55.6322 51.5788 55.3066 51.3965C54.9876 51.2077 54.6068 51.1133 54.1641 51.1133C53.7214 51.1133 53.3372 51.2077 53.0117 51.3965C52.6927 51.5788 52.429 51.8327 52.2207 52.1582C52.0124 52.4837 51.8594 52.8581 51.7617 53.2812C51.6641 53.6979 51.6152 54.1406 51.6152 54.6094Z" fill="#777777"/>
</g>
<defs>
<filter id="filter0_d_241_1299" x="0" y="0" width="100" height="93.8701" filterUnits="userSpaceOnUse" color-interpolation-filters="sRGB">
<feFlood flood-opacity="0" result="BackgroundImageFix"/>
<feColorMatrix in="SourceAlpha" type="matrix" values="0 0 0 0 0 0 0 0 0 0 0 0 0 0 0 0 0 0 127 0" result="hardAlpha"/>
<feOffset dx="2" dy="2"/>
<feGaussianBlur stdDeviation="2"/>
<feComposite in2="hardAlpha" operator="out"/>
<feColorMatrix type="matrix" values="0 0 0 0 0 0 0 0 0 0 0 0 0 0 0 0 0 0 0.25 0"/>
<feBlend mode="normal" in2="BackgroundImageFix" result="effect1_dropShadow_241_1299"/>
<feBlend mode="normal" in="SourceGraphic" in2="effect1_dropShadow_241_1299" result="shape"/>
</filter>
</defs>
</svg>
