<svg width="44" height="21" viewBox="0 0 44 21" fill="none" xmlns="http://www.w3.org/2000/svg">
<rect x="0.5" y="0.5" width="43" height="20" rx="3.5" fill="url(#paint0_radial_401_291)" stroke="#0DAC09"/>
<g filter="url(#filter0_d_401_291)">
<path d="M9.53711 15H7.75586L7.76758 14.0801H9.53711C10.1465 14.0801 10.6543 13.9531 11.0605 13.6992C11.4668 13.4414 11.7715 13.082 11.9746 12.6211C12.1816 12.1562 12.2852 11.6133 12.2852 10.9922V10.4707C12.2852 9.98242 12.2266 9.54883 12.1094 9.16992C11.9922 8.78711 11.8203 8.46484 11.5938 8.20312C11.3672 7.9375 11.0898 7.73633 10.7617 7.59961C10.4375 7.46289 10.0645 7.39453 9.64258 7.39453H7.7207V6.46875H9.64258C10.2012 6.46875 10.7109 6.5625 11.1719 6.75C11.6328 6.93359 12.0293 7.20117 12.3613 7.55273C12.6973 7.90039 12.9551 8.32227 13.1348 8.81836C13.3145 9.31055 13.4043 9.86523 13.4043 10.4824V10.9922C13.4043 11.6094 13.3145 12.166 13.1348 12.6621C12.9551 13.1543 12.6953 13.5742 12.3555 13.9219C12.0195 14.2695 11.6133 14.5371 11.1367 14.7246C10.6641 14.9082 10.1309 15 9.53711 15ZM8.35938 6.46875V15H7.22852V6.46875H8.35938ZM21.6719 10.4648V11.0039C21.6719 11.6445 21.5918 12.2188 21.4316 12.7266C21.2715 13.2344 21.041 13.666 20.7402 14.0215C20.4395 14.377 20.0781 14.6484 19.6562 14.8359C19.2383 15.0234 18.7695 15.1172 18.25 15.1172C17.7461 15.1172 17.2832 15.0234 16.8613 14.8359C16.4434 14.6484 16.0801 14.377 15.7715 14.0215C15.4668 13.666 15.2305 13.2344 15.0625 12.7266C14.8945 12.2188 14.8105 11.6445 14.8105 11.0039V10.4648C14.8105 9.82422 14.8926 9.25195 15.0566 8.74805C15.2246 8.24023 15.4609 7.80859 15.7656 7.45312C16.0703 7.09375 16.4316 6.82031 16.8496 6.63281C17.2715 6.44531 17.7344 6.35156 18.2383 6.35156C18.7578 6.35156 19.2266 6.44531 19.6445 6.63281C20.0664 6.82031 20.4277 7.09375 20.7285 7.45312C21.0332 7.80859 21.2656 8.24023 21.4258 8.74805C21.5898 9.25195 21.6719 9.82422 21.6719 10.4648ZM20.5527 11.0039V10.4531C20.5527 9.94531 20.5 9.49609 20.3945 9.10547C20.293 8.71484 20.1426 8.38672 19.9434 8.12109C19.7441 7.85547 19.5 7.6543 19.2109 7.51758C18.9258 7.38086 18.6016 7.3125 18.2383 7.3125C17.8867 7.3125 17.5684 7.38086 17.2832 7.51758C17.002 7.6543 16.7598 7.85547 16.5566 8.12109C16.3574 8.38672 16.2031 8.71484 16.0938 9.10547C15.9844 9.49609 15.9297 9.94531 15.9297 10.4531V11.0039C15.9297 11.5156 15.9844 11.9688 16.0938 12.3633C16.2031 12.7539 16.3594 13.084 16.5625 13.3535C16.7695 13.6191 17.0137 13.8203 17.2949 13.957C17.5801 14.0938 17.8984 14.1621 18.25 14.1621C18.6172 14.1621 18.9434 14.0938 19.2285 13.957C19.5137 13.8203 19.7539 13.6191 19.9492 13.3535C20.1484 13.084 20.2988 12.7539 20.4004 12.3633C20.502 11.9688 20.5527 11.5156 20.5527 11.0039ZM29.9277 6.46875V15H28.791L24.4961 8.41992V15H23.3652V6.46875H24.4961L28.8086 13.0664V6.46875H29.9277ZM37.3516 14.0801V15H32.834V14.0801H37.3516ZM33.0625 6.46875V15H31.9316V6.46875H33.0625ZM36.7539 10.1367V11.0566H32.834V10.1367H36.7539ZM37.293 6.46875V7.39453H32.834V6.46875H37.293Z" fill="white"/>
</g>
<defs>
<filter id="filter0_d_401_291" x="5.22852" y="6.35156" width="34.123" height="12.7656" filterUnits="userSpaceOnUse" color-interpolation-filters="sRGB">
<feFlood flood-opacity="0" result="BackgroundImageFix"/>
<feColorMatrix in="SourceAlpha" type="matrix" values="0 0 0 0 0 0 0 0 0 0 0 0 0 0 0 0 0 0 127 0" result="hardAlpha"/>
<feOffset dy="2"/>
<feGaussianBlur stdDeviation="1"/>
<feComposite in2="hardAlpha" operator="out"/>
<feColorMatrix type="matrix" values="0 0 0 0 0 0 0 0 0 0 0 0 0 0 0 0 0 0 0.35 0"/>
<feBlend mode="normal" in2="BackgroundImageFix" result="effect1_dropShadow_401_291"/>
<feBlend mode="normal" in="SourceGraphic" in2="effect1_dropShadow_401_291" result="shape"/>
</filter>
<radialGradient id="paint0_radial_401_291" cx="0" cy="0" r="1" gradientUnits="userSpaceOnUse" gradientTransform="translate(22 10.5) rotate(90) scale(17 35.619)">
<stop stop-color="#11B30E"/>
<stop offset="1" stop-color="#6ECF0D"/>
</radialGradient>
</defs>
</svg>
