<svg width="44" height="21" viewBox="0 0 44 21" fill="none" xmlns="http://www.w3.org/2000/svg">
<rect x="0.5" y="0.5" width="43" height="20" rx="3.5" fill="url(#paint0_radial_401_293)" stroke="#BE0C0C"/>
<g filter="url(#filter0_d_401_293)">
<path d="M12.6211 14.0801V15H8.10352V14.0801H12.6211ZM8.33203 6.46875V15H7.20117V6.46875H8.33203ZM12.0234 10.1367V11.0566H8.10352V10.1367H12.0234ZM12.5625 6.46875V7.39453H8.10352V6.46875H12.5625ZM14.7539 6.46875L16.8047 9.73828L18.8555 6.46875H20.1738L17.4785 10.6934L20.2383 15H18.9082L16.8047 11.666L14.7012 15H13.3711L16.1309 10.6934L13.4355 6.46875H14.7539ZM24.6914 11.6543H22.4121V10.7344H24.6914C25.1328 10.7344 25.4902 10.6641 25.7637 10.5234C26.0371 10.3828 26.2363 10.1875 26.3613 9.9375C26.4902 9.6875 26.5547 9.40234 26.5547 9.08203C26.5547 8.78906 26.4902 8.51367 26.3613 8.25586C26.2363 7.99805 26.0371 7.79102 25.7637 7.63477C25.4902 7.47461 25.1328 7.39453 24.6914 7.39453H22.6758V15H21.5449V6.46875H24.6914C25.3359 6.46875 25.8809 6.58008 26.3262 6.80273C26.7715 7.02539 27.1094 7.33398 27.3398 7.72852C27.5703 8.11914 27.6855 8.56641 27.6855 9.07031C27.6855 9.61719 27.5703 10.084 27.3398 10.4707C27.1094 10.8574 26.7715 11.1523 26.3262 11.3555C25.8809 11.5547 25.3359 11.6543 24.6914 11.6543ZM30.3281 6.46875V15H29.1973V6.46875H30.3281ZM32.3848 6.46875H35.209C35.8496 6.46875 36.3906 6.56641 36.832 6.76172C37.2773 6.95703 37.6152 7.24609 37.8457 7.62891C38.0801 8.00781 38.1973 8.47461 38.1973 9.0293C38.1973 9.41992 38.1172 9.77734 37.957 10.1016C37.8008 10.4219 37.5742 10.6953 37.2773 10.9219C36.9844 11.1445 36.6328 11.3105 36.2227 11.4199L35.9062 11.543H33.252L33.2402 10.623H35.2441C35.6504 10.623 35.9883 10.5527 36.2578 10.4121C36.5273 10.2676 36.7305 10.0742 36.8672 9.83203C37.0039 9.58984 37.0723 9.32227 37.0723 9.0293C37.0723 8.70117 37.0078 8.41406 36.8789 8.16797C36.75 7.92188 36.5469 7.73242 36.2695 7.59961C35.9961 7.46289 35.6426 7.39453 35.209 7.39453H33.5156V15H32.3848V6.46875ZM37.3711 15L35.2969 11.1328L36.4746 11.127L38.5781 14.9297V15H37.3711Z" fill="white"/>
</g>
<defs>
<filter id="filter0_d_401_293" x="5.20117" y="6.46875" width="35.377" height="12.5312" filterUnits="userSpaceOnUse" color-interpolation-filters="sRGB">
<feFlood flood-opacity="0" result="BackgroundImageFix"/>
<feColorMatrix in="SourceAlpha" type="matrix" values="0 0 0 0 0 0 0 0 0 0 0 0 0 0 0 0 0 0 127 0" result="hardAlpha"/>
<feOffset dy="2"/>
<feGaussianBlur stdDeviation="1"/>
<feComposite in2="hardAlpha" operator="out"/>
<feColorMatrix type="matrix" values="0 0 0 0 0 0 0 0 0 0 0 0 0 0 0 0 0 0 0.45 0"/>
<feBlend mode="normal" in2="BackgroundImageFix" result="effect1_dropShadow_401_293"/>
<feBlend mode="normal" in="SourceGraphic" in2="effect1_dropShadow_401_293" result="shape"/>
</filter>
<radialGradient id="paint0_radial_401_293" cx="0" cy="0" r="1" gradientUnits="userSpaceOnUse" gradientTransform="translate(22 10.5) rotate(90) scale(10.5 22)">
<stop stop-color="#EF7373"/>
<stop offset="1" stop-color="#FF1616"/>
</radialGradient>
</defs>
</svg>
