<svg width="44" height="21" viewBox="0 0 44 21" fill="none" xmlns="http://www.w3.org/2000/svg">
<rect x="0.5" y="0.5" width="43" height="20" rx="3.5" fill="url(#paint0_radial_401_295)" stroke="#0DAC09"/>
<g filter="url(#filter0_d_401_295)">
<path d="M11.3379 6.46875V15H10.207V6.46875H11.3379ZM19.957 6.46875V15H18.8203L14.5254 8.41992V15H13.3945V6.46875H14.5254L18.8379 13.0664V6.46875H19.957ZM23.0918 6.46875V15H21.9609V6.46875H23.0918ZM26.666 10.3066V11.2324H22.8457V10.3066H26.666ZM27.2461 6.46875V7.39453H22.8457V6.46875H27.2461ZM35.1621 10.4648V11.0039C35.1621 11.6445 35.082 12.2188 34.9219 12.7266C34.7617 13.2344 34.5312 13.666 34.2305 14.0215C33.9297 14.377 33.5684 14.6484 33.1465 14.8359C32.7285 15.0234 32.2598 15.1172 31.7402 15.1172C31.2363 15.1172 30.7734 15.0234 30.3516 14.8359C29.9336 14.6484 29.5703 14.377 29.2617 14.0215C28.957 13.666 28.7207 13.2344 28.5527 12.7266C28.3848 12.2188 28.3008 11.6445 28.3008 11.0039V10.4648C28.3008 9.82422 28.3828 9.25195 28.5469 8.74805C28.7148 8.24023 28.9512 7.80859 29.2559 7.45312C29.5605 7.09375 29.9219 6.82031 30.3398 6.63281C30.7617 6.44531 31.2246 6.35156 31.7285 6.35156C32.248 6.35156 32.7168 6.44531 33.1348 6.63281C33.5566 6.82031 33.918 7.09375 34.2188 7.45312C34.5234 7.80859 34.7559 8.24023 34.916 8.74805C35.0801 9.25195 35.1621 9.82422 35.1621 10.4648ZM34.043 11.0039V10.4531C34.043 9.94531 33.9902 9.49609 33.8848 9.10547C33.7832 8.71484 33.6328 8.38672 33.4336 8.12109C33.2344 7.85547 32.9902 7.6543 32.7012 7.51758C32.416 7.38086 32.0918 7.3125 31.7285 7.3125C31.377 7.3125 31.0586 7.38086 30.7734 7.51758C30.4922 7.6543 30.25 7.85547 30.0469 8.12109C29.8477 8.38672 29.6934 8.71484 29.584 9.10547C29.4746 9.49609 29.4199 9.94531 29.4199 10.4531V11.0039C29.4199 11.5156 29.4746 11.9688 29.584 12.3633C29.6934 12.7539 29.8496 13.084 30.0527 13.3535C30.2598 13.6191 30.5039 13.8203 30.7852 13.957C31.0703 14.0938 31.3887 14.1621 31.7402 14.1621C32.1074 14.1621 32.4336 14.0938 32.7188 13.957C33.0039 13.8203 33.2441 13.6191 33.4395 13.3535C33.6387 13.084 33.7891 12.7539 33.8906 12.3633C33.9922 11.9688 34.043 11.5156 34.043 11.0039Z" fill="white"/>
</g>
<defs>
<filter id="filter0_d_401_295" x="8.20703" y="6.35156" width="28.9551" height="12.7656" filterUnits="userSpaceOnUse" color-interpolation-filters="sRGB">
<feFlood flood-opacity="0" result="BackgroundImageFix"/>
<feColorMatrix in="SourceAlpha" type="matrix" values="0 0 0 0 0 0 0 0 0 0 0 0 0 0 0 0 0 0 127 0" result="hardAlpha"/>
<feOffset dy="2"/>
<feGaussianBlur stdDeviation="1"/>
<feComposite in2="hardAlpha" operator="out"/>
<feColorMatrix type="matrix" values="0 0 0 0 0 0 0 0 0 0 0 0 0 0 0 0 0 0 0.35 0"/>
<feBlend mode="normal" in2="BackgroundImageFix" result="effect1_dropShadow_401_295"/>
<feBlend mode="normal" in="SourceGraphic" in2="effect1_dropShadow_401_295" result="shape"/>
</filter>
<radialGradient id="paint0_radial_401_295" cx="0" cy="0" r="1" gradientUnits="userSpaceOnUse" gradientTransform="translate(22 10.5) rotate(90) scale(17 35.619)">
<stop stop-color="#11B30E"/>
<stop offset="1" stop-color="#6ECF0D"/>
</radialGradient>
</defs>
</svg>
