<svg width="63" height="70" viewBox="0 0 63 70" fill="none" xmlns="http://www.w3.org/2000/svg">
<path d="M5 0.5C2.51472 0.5 0.5 2.51472 0.5 5V65C0.5 67.4853 2.51472 69.5 5 69.5H57.093C59.5783 69.5 61.593 67.4853 61.593 65V5C61.593 2.51472 59.5783 0.5 57.093 0.5H5Z" fill="white" stroke="#ABABAB"/>
<rect x="7.32568" y="8.90698" width="34.7907" height="6.32558" rx="3.16279" fill="#ABABAB"/>
<rect x="7.32568" y="23.1396" width="47.4419" height="3.16279" rx="1.5814" fill="#ABABAB"/>
<rect x="7.32568" y="27.8838" width="47.4419" height="3.16279" rx="1.5814" fill="#ABABAB"/>
<rect x="7.32568" y="32.6279" width="47.4419" height="3.16279" rx="1.5814" fill="#ABABAB"/>
<rect x="7.32568" y="37.3721" width="47.4419" height="3.16279" rx="1.5814" fill="#ABABAB"/>
<rect x="7.32568" y="42.1162" width="47.4419" height="3.16279" rx="1.5814" fill="#ABABAB"/>
<rect x="7.32568" y="46.8604" width="47.4419" height="3.16279" rx="1.5814" fill="#ABABAB"/>
<path d="M9.75381 55.6548V64.186H8.28311V55.6548H9.75381ZM18.3495 55.6548V64.186H16.8788L13.0526 58.0747V64.186H11.5819V55.6548H13.0526L16.8905 61.7778V55.6548H18.3495ZM23.0253 62.6274L25.2694 55.6548H26.8925L23.8339 64.186H22.7382L23.0253 62.6274ZM20.9511 55.6548L23.1776 62.6274L23.4823 64.186H22.3808L19.3339 55.6548H20.9511ZM34.5683 59.686V60.1548C34.5683 60.7993 34.4843 61.3774 34.3163 61.8892C34.1483 62.4009 33.9081 62.8364 33.5956 63.1958C33.287 63.5552 32.9159 63.8306 32.4823 64.022C32.0487 64.2095 31.5683 64.3032 31.0409 64.3032C30.5175 64.3032 30.039 64.2095 29.6054 64.022C29.1757 63.8306 28.8026 63.5552 28.4862 63.1958C28.1698 62.8364 27.9237 62.4009 27.748 61.8892C27.5761 61.3774 27.4901 60.7993 27.4901 60.1548V59.686C27.4901 59.0415 27.5761 58.4653 27.748 57.9575C27.9198 57.4458 28.162 57.0103 28.4745 56.6509C28.7909 56.2876 29.164 56.0122 29.5937 55.8247C30.0273 55.6333 30.5058 55.5376 31.0292 55.5376C31.5565 55.5376 32.037 55.6333 32.4706 55.8247C32.9042 56.0122 33.2773 56.2876 33.5898 56.6509C33.9023 57.0103 34.1425 57.4458 34.3105 57.9575C34.4823 58.4653 34.5683 59.0415 34.5683 59.686ZM33.0976 60.1548V59.6743C33.0976 59.1978 33.0507 58.7778 32.9569 58.4146C32.8671 58.0474 32.7323 57.7407 32.5526 57.4946C32.3769 57.2446 32.1601 57.0571 31.9023 56.9321C31.6444 56.8032 31.3534 56.7388 31.0292 56.7388C30.705 56.7388 30.4159 56.8032 30.162 56.9321C29.9081 57.0571 29.6913 57.2446 29.5116 57.4946C29.3358 57.7407 29.2011 58.0474 29.1073 58.4146C29.0136 58.7778 28.9667 59.1978 28.9667 59.6743V60.1548C28.9667 60.6313 29.0136 61.0532 29.1073 61.4204C29.2011 61.7876 29.3378 62.0981 29.5175 62.3521C29.7011 62.6021 29.9198 62.7915 30.1737 62.9204C30.4276 63.0454 30.7167 63.1079 31.0409 63.1079C31.369 63.1079 31.6601 63.0454 31.914 62.9204C32.1679 62.7915 32.3827 62.6021 32.5585 62.3521C32.7343 62.0981 32.8671 61.7876 32.9569 61.4204C33.0507 61.0532 33.0976 60.6313 33.0976 60.1548ZM37.6093 55.6548V64.186H36.1386V55.6548H37.6093ZM44.4765 61.4087H45.9413C45.8944 61.9673 45.7382 62.4653 45.4726 62.9028C45.2069 63.3364 44.8339 63.6782 44.3534 63.9282C43.873 64.1782 43.289 64.3032 42.6015 64.3032C42.0741 64.3032 41.5995 64.2095 41.1776 64.022C40.7558 63.8306 40.3944 63.561 40.0937 63.2134C39.7929 62.8618 39.5624 62.438 39.4023 61.9419C39.246 61.4458 39.1679 60.8911 39.1679 60.2778V59.5688C39.1679 58.9556 39.248 58.4009 39.4081 57.9048C39.5722 57.4087 39.8065 56.9849 40.1112 56.6333C40.4159 56.2778 40.7812 56.0063 41.2069 55.8188C41.6366 55.6313 42.119 55.5376 42.6542 55.5376C43.3339 55.5376 43.9081 55.6626 44.3769 55.9126C44.8456 56.1626 45.2089 56.5083 45.4667 56.9497C45.7284 57.3911 45.8886 57.897 45.9472 58.4673H44.4823C44.4433 58.1001 44.3573 57.7856 44.2245 57.5239C44.0956 57.2622 43.9042 57.063 43.6503 56.9263C43.3964 56.7856 43.0644 56.7153 42.6542 56.7153C42.3183 56.7153 42.0253 56.7778 41.7753 56.9028C41.5253 57.0278 41.3163 57.2114 41.1483 57.4536C40.9804 57.6958 40.8534 57.9946 40.7675 58.3501C40.6855 58.7017 40.6444 59.104 40.6444 59.5571V60.2778C40.6444 60.7075 40.6815 61.0981 40.7558 61.4497C40.8339 61.7974 40.9511 62.0962 41.1073 62.3462C41.2675 62.5962 41.4706 62.7896 41.7167 62.9263C41.9628 63.063 42.2577 63.1313 42.6015 63.1313C43.0194 63.1313 43.3573 63.0649 43.6151 62.9321C43.8769 62.7993 44.0741 62.606 44.2069 62.3521C44.3437 62.0942 44.4335 61.7798 44.4765 61.4087ZM52.8612 63.02V64.186H48.3319V63.02H52.8612ZM48.748 55.6548V64.186H47.2773V55.6548H48.748ZM52.2694 59.2173V60.3657H48.3319V59.2173H52.2694ZM52.8319 55.6548V56.8267H48.3319V55.6548H52.8319Z" fill="#777777"/>
</svg>
