<svg width="203" height="182" viewBox="0 0 203 182" fill="none" xmlns="http://www.w3.org/2000/svg">
<path d="M5 0.5C2.51472 0.5 0.5 2.51472 0.5 5V176.937C0.5 179.423 2.51471 181.437 5 181.437H197.86C200.346 181.437 202.36 179.423 202.36 176.937V5C202.36 2.51472 200.346 0.5 197.86 0.5H5Z" fill="white" stroke="#ABABAB"/>
<path d="M61.5242 75.2395V103.677H56.6219V75.2395H61.5242ZM69.6101 75.2395H73.9851L82.2078 97.1731L90.4109 75.2395H94.7859L83.9265 103.677H80.45L69.6101 75.2395ZM67.6179 75.2395H71.7781L72.5008 94.2239V103.677H67.6179V75.2395ZM92.6179 75.2395H96.7976V103.677H91.8953V94.2239L92.6179 75.2395ZM124.454 89.1458V100.005C124.05 100.539 123.419 101.125 122.559 101.763C121.713 102.388 120.587 102.928 119.18 103.384C117.774 103.84 116.023 104.068 113.927 104.068C112.143 104.068 110.509 103.768 109.024 103.169C107.54 102.557 106.257 101.665 105.177 100.493C104.109 99.3215 103.282 97.8958 102.696 96.2161C102.11 94.5234 101.817 92.5963 101.817 90.4348V88.4622C101.817 86.3137 102.084 84.3997 102.618 82.72C103.165 81.0273 103.946 79.595 104.962 78.4231C105.977 77.2512 107.201 76.3658 108.634 75.7668C110.079 75.1549 111.713 74.8489 113.536 74.8489C115.867 74.8489 117.794 75.2395 119.317 76.0208C120.854 76.789 122.039 77.8567 122.872 79.2239C123.705 80.5911 124.233 82.1536 124.454 83.9114H119.649C119.493 82.9218 119.187 82.0364 118.731 81.2551C118.289 80.4739 117.65 79.8619 116.817 79.4192C115.997 78.9635 114.929 78.7356 113.614 78.7356C112.481 78.7356 111.485 78.9504 110.626 79.3801C109.766 79.8098 109.05 80.4413 108.477 81.2747C107.917 82.108 107.494 83.1236 107.208 84.3215C106.921 85.5194 106.778 86.8866 106.778 88.4231V90.4348C106.778 91.9973 106.941 93.384 107.266 94.595C107.605 95.8059 108.087 96.828 108.712 97.6614C109.35 98.4947 110.124 99.1262 111.036 99.5559C111.947 99.9726 112.976 100.181 114.122 100.181C115.242 100.181 116.16 100.09 116.876 99.9075C117.592 99.7122 118.158 99.4843 118.575 99.2239C119.005 98.9504 119.337 98.69 119.571 98.4426V92.7981H113.653V89.1458H124.454ZM134.669 87.3293H137.481C138.575 87.3293 139.48 87.1405 140.196 86.7629C140.925 86.3853 141.466 85.8645 141.817 85.2004C142.169 84.5364 142.345 83.7747 142.345 82.9153C142.345 82.0168 142.182 81.2486 141.856 80.6106C141.544 79.9596 141.062 79.4583 140.411 79.1067C139.773 78.7551 138.959 78.5793 137.97 78.5793C137.136 78.5793 136.381 78.7486 135.704 79.0872C135.04 79.4127 134.512 79.8814 134.122 80.4934C133.731 81.0924 133.536 81.8085 133.536 82.6418H128.809C128.809 81.1314 129.206 79.7903 130.001 78.6184C130.795 77.4465 131.876 76.5286 133.243 75.8645C134.623 75.1874 136.173 74.8489 137.891 74.8489C139.727 74.8489 141.329 75.1549 142.696 75.7668C144.076 76.3658 145.151 77.2642 145.919 78.4622C146.687 79.6601 147.071 81.1444 147.071 82.9153C147.071 83.7226 146.882 84.5429 146.505 85.3762C146.127 86.2096 145.567 86.9713 144.825 87.6614C144.083 88.3385 143.158 88.8918 142.052 89.3215C140.945 89.7382 139.662 89.9465 138.204 89.9465H134.669V87.3293ZM134.669 91.0012V88.4231H138.204C139.871 88.4231 141.29 88.6184 142.462 89.009C143.647 89.3997 144.61 89.94 145.352 90.6301C146.095 91.3072 146.635 92.0819 146.973 92.9543C147.325 93.8267 147.501 94.7512 147.501 95.7278C147.501 97.0559 147.26 98.2408 146.778 99.2825C146.309 100.311 145.639 101.184 144.766 101.9C143.894 102.616 142.872 103.156 141.7 103.521C140.541 103.885 139.278 104.068 137.911 104.068C136.687 104.068 135.515 103.898 134.395 103.56C133.276 103.221 132.273 102.72 131.387 102.056C130.502 101.379 129.799 100.539 129.278 99.5364C128.77 98.5208 128.516 97.3489 128.516 96.0208H133.223C133.223 96.8671 133.419 97.6158 133.809 98.2668C134.213 98.9049 134.773 99.4062 135.489 99.7708C136.218 100.135 137.052 100.318 137.989 100.318C138.979 100.318 139.831 100.142 140.548 99.7903C141.264 99.4387 141.811 98.9179 142.188 98.2278C142.579 97.5377 142.774 96.7043 142.774 95.7278C142.774 94.621 142.559 93.7226 142.13 93.0325C141.7 92.3424 141.088 91.8346 140.294 91.509C139.499 91.1705 138.562 91.0012 137.481 91.0012H134.669Z" fill="#ABABAB"/>
</svg>
