<svg width="203" height="182" viewBox="0 0 203 182" fill="none" xmlns="http://www.w3.org/2000/svg">
<path d="M5 0.5C2.51472 0.5 0.5 2.51472 0.5 5V176.937C0.5 179.423 2.51471 181.437 5 181.437H197.86C200.346 181.437 202.36 179.423 202.36 176.937V5C202.36 2.51472 200.346 0.5 197.86 0.5H5Z" fill="white" stroke="#ABABAB"/>
<path d="M61.5242 75.2397V103.677H56.6219V75.2397H61.5242ZM69.6101 75.2397H73.9851L82.2078 97.1733L90.4109 75.2397H94.7859L83.9265 103.677H80.45L69.6101 75.2397ZM67.6179 75.2397H71.7781L72.5008 94.2241V103.677H67.6179V75.2397ZM92.6179 75.2397H96.7976V103.677H91.8953V94.2241L92.6179 75.2397ZM124.454 89.146V100.005C124.05 100.539 123.419 101.125 122.559 101.763C121.713 102.388 120.587 102.929 119.18 103.384C117.774 103.84 116.023 104.068 113.927 104.068C112.143 104.068 110.509 103.768 109.024 103.169C107.54 102.557 106.257 101.666 105.177 100.494C104.109 99.3218 103.282 97.896 102.696 96.2163C102.11 94.5236 101.817 92.5965 101.817 90.4351V88.4624C101.817 86.314 102.084 84.3999 102.618 82.7202C103.165 81.0275 103.946 79.5952 104.962 78.4233C105.977 77.2515 107.201 76.366 108.634 75.7671C110.079 75.1551 111.713 74.8491 113.536 74.8491C115.867 74.8491 117.794 75.2397 119.317 76.021C120.854 76.7892 122.039 77.8569 122.872 79.2241C123.705 80.5913 124.233 82.1538 124.454 83.9116H119.649C119.493 82.922 119.187 82.0366 118.731 81.2554C118.289 80.4741 117.65 79.8621 116.817 79.4194C115.997 78.9637 114.929 78.7358 113.614 78.7358C112.481 78.7358 111.485 78.9507 110.626 79.3804C109.766 79.8101 109.05 80.4416 108.477 81.2749C107.917 82.1082 107.494 83.1239 107.208 84.3218C106.921 85.5197 106.778 86.8869 106.778 88.4233V90.4351C106.778 91.9976 106.941 93.3843 107.266 94.5952C107.605 95.8062 108.087 96.8283 108.712 97.6616C109.35 98.495 110.124 99.1265 111.036 99.5562C111.947 99.9728 112.976 100.181 114.122 100.181C115.242 100.181 116.16 100.09 116.876 99.9077C117.592 99.7124 118.158 99.4845 118.575 99.2241C119.005 98.9507 119.337 98.6903 119.571 98.4429V92.7983H113.653V89.146H124.454ZM148.204 99.9272V103.677H129.141V100.455L138.399 90.3569C139.415 89.2111 140.216 88.2215 140.802 87.3882C141.387 86.5549 141.798 85.8062 142.032 85.1421C142.279 84.465 142.403 83.8075 142.403 83.1694C142.403 82.271 142.234 81.4832 141.895 80.8062C141.57 80.116 141.088 79.5757 140.45 79.1851C139.812 78.7814 139.037 78.5796 138.126 78.5796C137.071 78.5796 136.186 78.8075 135.47 79.2632C134.753 79.7189 134.213 80.3504 133.848 81.1577C133.484 81.952 133.302 82.8634 133.302 83.8921H128.595C128.595 82.2384 128.972 80.728 129.727 79.3608C130.483 77.9806 131.576 76.8869 133.009 76.0796C134.441 75.2593 136.166 74.8491 138.184 74.8491C140.085 74.8491 141.7 75.1681 143.028 75.8062C144.356 76.4442 145.365 77.3491 146.055 78.521C146.759 79.6929 147.11 81.0796 147.11 82.6812C147.11 83.5666 146.967 84.4455 146.68 85.3179C146.394 86.1903 145.984 87.0627 145.45 87.9351C144.929 88.7944 144.311 89.6603 143.595 90.5327C142.878 91.3921 142.091 92.2645 141.231 93.1499L135.079 99.9272H148.204Z" fill="#ABABAB"/>
</svg>
