<svg width="118" height="106" viewBox="0 0 118 106" fill="none" xmlns="http://www.w3.org/2000/svg">
<path d="M5 0.5C2.51472 0.5 0.5 2.51471 0.5 4.99999V100.917C0.5 103.402 2.51472 105.417 5 105.417H113C115.485 105.417 117.5 103.402 117.5 100.917V5C117.5 2.51472 115.485 0.5 113 0.5H5Z" fill="white" stroke="#ABABAB"/>
<path d="M35.5625 41.25V64H31.6406V41.25H35.5625ZM42.0312 41.25H45.5312L52.1094 58.7969L58.6719 41.25H62.1719L53.4844 64H50.7031L42.0312 41.25ZM40.4375 41.25H43.7656L44.3438 56.4375V64H40.4375V41.25ZM60.4375 41.25H63.7812V64H59.8594V56.4375L60.4375 41.25ZM85.9062 52.375V61.0625C85.5833 61.4896 85.0781 61.9583 84.3906 62.4688C83.7135 62.9688 82.8125 63.401 81.6875 63.7656C80.5625 64.1302 79.1615 64.3125 77.4844 64.3125C76.0573 64.3125 74.75 64.0729 73.5625 63.5938C72.375 63.1042 71.349 62.3906 70.4844 61.4531C69.6302 60.5156 68.9688 59.375 68.5 58.0312C68.0312 56.6771 67.7969 55.1354 67.7969 53.4062V51.8281C67.7969 50.1094 68.0104 48.5781 68.4375 47.2344C68.875 45.8802 69.5 44.7344 70.3125 43.7969C71.125 42.8594 72.1042 42.151 73.25 41.6719C74.4062 41.1823 75.7135 40.9375 77.1719 40.9375C79.0365 40.9375 80.5781 41.25 81.7969 41.875C83.026 42.4896 83.974 43.3438 84.6406 44.4375C85.3073 45.5312 85.7292 46.7812 85.9062 48.1875H82.0625C81.9375 47.3958 81.6927 46.6875 81.3281 46.0625C80.974 45.4375 80.4635 44.9479 79.7969 44.5938C79.1406 44.2292 78.2865 44.0469 77.2344 44.0469C76.3281 44.0469 75.5312 44.2188 74.8438 44.5625C74.1562 44.9062 73.5833 45.4115 73.125 46.0781C72.6771 46.7448 72.3385 47.5573 72.1094 48.5156C71.8802 49.474 71.7656 50.5677 71.7656 51.7969V53.4062C71.7656 54.6562 71.8958 55.7656 72.1562 56.7344C72.4271 57.7031 72.8125 58.5208 73.3125 59.1875C73.8229 59.8542 74.4427 60.3594 75.1719 60.7031C75.901 61.0365 76.724 61.2031 77.6406 61.2031C78.5365 61.2031 79.2708 61.1302 79.8438 60.9844C80.4167 60.8281 80.8698 60.6458 81.2031 60.4375C81.5469 60.2188 81.8125 60.0104 82 59.8125V55.2969H77.2656V52.375H85.9062Z" fill="#ABABAB"/>
</svg>
