<svg width="203" height="182" viewBox="0 0 203 182" fill="none" xmlns="http://www.w3.org/2000/svg">
<path d="M5 0.5C2.51472 0.5 0.5 2.51472 0.5 5V176.937C0.5 179.423 2.51471 181.437 5 181.437H197.86C200.346 181.437 202.36 179.423 202.36 176.937V5C202.36 2.51472 200.346 0.5 197.86 0.5H5Z" fill="white" stroke="#ABABAB"/>
<path d="M61.5242 75.2395V103.677H56.6219V75.2395H61.5242ZM69.6101 75.2395H73.9851L82.2078 97.1731L90.4109 75.2395H94.7859L83.9265 103.677H80.45L69.6101 75.2395ZM67.6179 75.2395H71.7781L72.5008 94.2239V103.677H67.6179V75.2395ZM92.6179 75.2395H96.7976V103.677H91.8953V94.2239L92.6179 75.2395ZM124.454 89.1458V100.005C124.05 100.539 123.419 101.125 122.559 101.763C121.713 102.388 120.587 102.928 119.18 103.384C117.774 103.84 116.023 104.068 113.927 104.068C112.143 104.068 110.509 103.768 109.024 103.169C107.54 102.557 106.257 101.665 105.177 100.493C104.109 99.3215 103.282 97.8958 102.696 96.2161C102.11 94.5234 101.817 92.5963 101.817 90.4348V88.4622C101.817 86.3137 102.084 84.3997 102.618 82.72C103.165 81.0273 103.946 79.595 104.962 78.4231C105.977 77.2512 107.201 76.3658 108.634 75.7668C110.079 75.1549 111.713 74.8489 113.536 74.8489C115.867 74.8489 117.794 75.2395 119.317 76.0208C120.854 76.789 122.039 77.8567 122.872 79.2239C123.705 80.5911 124.233 82.1536 124.454 83.9114H119.649C119.493 82.9218 119.187 82.0364 118.731 81.2551C118.289 80.4739 117.65 79.8619 116.817 79.4192C115.997 78.9635 114.929 78.7356 113.614 78.7356C112.481 78.7356 111.485 78.9504 110.626 79.3801C109.766 79.8098 109.05 80.4413 108.477 81.2747C107.917 82.108 107.494 83.1236 107.208 84.3215C106.921 85.5194 106.778 86.8866 106.778 88.4231V90.4348C106.778 91.9973 106.941 93.384 107.266 94.595C107.605 95.8059 108.087 96.828 108.712 97.6614C109.35 98.4947 110.124 99.1262 111.036 99.5559C111.947 99.9726 112.976 100.181 114.122 100.181C115.242 100.181 116.16 100.09 116.876 99.9075C117.592 99.7122 118.158 99.4843 118.575 99.2239C119.005 98.9504 119.337 98.69 119.571 98.4426V92.7981H113.653V89.1458H124.454ZM141.993 75.1418V103.677H137.286V80.7278L130.313 83.0911V79.2043L141.427 75.1418H141.993Z" fill="#ABABAB"/>
</svg>
