<svg width="44" height="21" viewBox="0 0 44 21" fill="none" xmlns="http://www.w3.org/2000/svg">
<rect x="0.5" y="0.5" width="43" height="20" rx="3.5" fill="url(#paint0_radial_401_294)" stroke="#BE9A1B"/>
<g filter="url(#filter0_d_401_294)">
<path d="M11.2207 11.6543H8.94141V10.7344H11.2207C11.6621 10.7344 12.0195 10.6641 12.293 10.5234C12.5664 10.3828 12.7656 10.1875 12.8906 9.9375C13.0195 9.6875 13.084 9.40234 13.084 9.08203C13.084 8.78906 13.0195 8.51367 12.8906 8.25586C12.7656 7.99805 12.5664 7.79102 12.293 7.63477C12.0195 7.47461 11.6621 7.39453 11.2207 7.39453H9.20508V15H8.07422V6.46875H11.2207C11.8652 6.46875 12.4102 6.58008 12.8555 6.80273C13.3008 7.02539 13.6387 7.33398 13.8691 7.72852C14.0996 8.11914 14.2148 8.56641 14.2148 9.07031C14.2148 9.61719 14.0996 10.084 13.8691 10.4707C13.6387 10.8574 13.3008 11.1523 12.8555 11.3555C12.4102 11.5547 11.8652 11.6543 11.2207 11.6543ZM21.0645 14.0801V15H16.5469V14.0801H21.0645ZM16.7754 6.46875V15H15.6445V6.46875H16.7754ZM20.4668 10.1367V11.0566H16.5469V10.1367H20.4668ZM21.0059 6.46875V7.39453H16.5469V6.46875H21.0059ZM29.0273 6.46875V15H27.8906L23.5957 8.41992V15H22.4648V6.46875H23.5957L27.9082 13.0664V6.46875H29.0273ZM33.3398 15H31.5586L31.5703 14.0801H33.3398C33.9492 14.0801 34.457 13.9531 34.8633 13.6992C35.2695 13.4414 35.5742 13.082 35.7773 12.6211C35.9844 12.1562 36.0879 11.6133 36.0879 10.9922V10.4707C36.0879 9.98242 36.0293 9.54883 35.9121 9.16992C35.7949 8.78711 35.623 8.46484 35.3965 8.20312C35.1699 7.9375 34.8926 7.73633 34.5645 7.59961C34.2402 7.46289 33.8672 7.39453 33.4453 7.39453H31.5234V6.46875H33.4453C34.0039 6.46875 34.5137 6.5625 34.9746 6.75C35.4355 6.93359 35.832 7.20117 36.1641 7.55273C36.5 7.90039 36.7578 8.32227 36.9375 8.81836C37.1172 9.31055 37.207 9.86523 37.207 10.4824V10.9922C37.207 11.6094 37.1172 12.166 36.9375 12.6621C36.7578 13.1543 36.498 13.5742 36.1582 13.9219C35.8223 14.2695 35.416 14.5371 34.9395 14.7246C34.4668 14.9082 33.9336 15 33.3398 15ZM32.1621 6.46875V15H31.0312V6.46875H32.1621Z" fill="white"/>
</g>
<defs>
<filter id="filter0_d_401_294" x="6.07422" y="6.46875" width="33.1328" height="12.5312" filterUnits="userSpaceOnUse" color-interpolation-filters="sRGB">
<feFlood flood-opacity="0" result="BackgroundImageFix"/>
<feColorMatrix in="SourceAlpha" type="matrix" values="0 0 0 0 0 0 0 0 0 0 0 0 0 0 0 0 0 0 127 0" result="hardAlpha"/>
<feOffset dy="2"/>
<feGaussianBlur stdDeviation="1"/>
<feComposite in2="hardAlpha" operator="out"/>
<feColorMatrix type="matrix" values="0 0 0 0 0 0 0 0 0 0 0 0 0 0 0 0 0 0 0.35 0"/>
<feBlend mode="normal" in2="BackgroundImageFix" result="effect1_dropShadow_401_294"/>
<feBlend mode="normal" in="SourceGraphic" in2="effect1_dropShadow_401_294" result="shape"/>
</filter>
<radialGradient id="paint0_radial_401_294" cx="0" cy="0" r="1" gradientUnits="userSpaceOnUse" gradientTransform="translate(22 10.5) rotate(90) scale(10.5 22)">
<stop stop-color="#F79400"/>
<stop offset="1" stop-color="#FFBE16"/>
</radialGradient>
</defs>
</svg>
