<svg width="71" height="78" viewBox="0 0 71 78" fill="none" xmlns="http://www.w3.org/2000/svg">
<g filter="url(#filter0_d_4_2355)">
<path d="M59.093 2.5H7C4.51472 2.5 2.5 4.51472 2.5 7V67C2.5 69.4853 4.51472 71.5 7 71.5H59.093C61.5783 71.5 63.593 69.4853 63.593 67V7C63.593 4.51472 61.5783 2.5 59.093 2.5Z" fill="white" stroke="#ABABAB"/>
<rect x="9.32544" y="10.907" width="47.4419" height="6.32558" rx="3.16279" fill="#ABABAB"/>
<rect x="9.32544" y="25.1394" width="47.4419" height="3.16279" rx="1.5814" fill="#ABABAB"/>
<rect x="9.32544" y="29.8838" width="47.4419" height="3.16279" rx="1.5814" fill="#ABABAB"/>
<rect x="9.32544" y="34.6279" width="47.4419" height="3.16279" rx="1.5814" fill="#ABABAB"/>
<rect x="9.32544" y="39.3721" width="47.4419" height="3.16279" rx="1.5814" fill="#ABABAB"/>
<rect x="9.32544" y="44.1162" width="47.4419" height="3.16279" rx="1.5814" fill="#ABABAB"/>
<rect x="9.32544" y="48.8604" width="20.5581" height="3.16279" rx="1.5814" fill="#ABABAB"/>
<rect x="9.32544" y="53.6047" width="20.5581" height="3.16279" rx="1.5814" fill="#ABABAB"/>
<rect x="9.32544" y="58.3489" width="20.5581" height="3.16279" rx="1.5814" fill="#ABABAB"/>
<rect x="9.32544" y="58.3489" width="20.5581" height="3.16279" rx="1.5814" fill="#ABABAB"/>
<path d="M39.0652 55.0974H36.8444V53.9314H39.0652C39.4519 53.9314 39.7644 53.8689 40.0027 53.7439C40.2409 53.6189 40.4148 53.447 40.5241 53.2283C40.6374 53.0056 40.6941 52.7517 40.6941 52.4666C40.6941 52.197 40.6374 51.9451 40.5241 51.7107C40.4148 51.4724 40.2409 51.281 40.0027 51.1365C39.7644 50.9919 39.4519 50.9197 39.0652 50.9197H37.2956V58.2791H35.8249V49.7478H39.0652C39.7253 49.7478 40.2859 49.865 40.7468 50.0994C41.2116 50.3298 41.5652 50.6501 41.8073 51.0603C42.0495 51.4666 42.1706 51.9314 42.1706 52.4548C42.1706 53.0056 42.0495 53.4783 41.8073 53.8728C41.5652 54.2673 41.2116 54.5701 40.7468 54.781C40.2859 54.9919 39.7253 55.0974 39.0652 55.0974ZM41.3327 57.5759C41.3327 57.3572 41.4069 57.1736 41.5554 57.0251C41.7038 56.8728 41.905 56.7966 42.1589 56.7966C42.4167 56.7966 42.6179 56.8728 42.7624 57.0251C42.9109 57.1736 42.9851 57.3572 42.9851 57.5759C42.9851 57.7947 42.9109 57.9783 42.7624 58.1267C42.6179 58.2751 42.4167 58.3494 42.1589 58.3494C41.905 58.3494 41.7038 58.2751 41.5554 58.1267C41.4069 57.9783 41.3327 57.7947 41.3327 57.5759ZM51.5573 53.7791V54.2478C51.5573 54.8923 51.4734 55.4705 51.3054 55.9822C51.1374 56.4939 50.8972 56.9294 50.5847 57.2888C50.2761 57.6482 49.905 57.9236 49.4714 58.115C49.0378 58.3025 48.5573 58.3962 48.03 58.3962C47.5066 58.3962 47.028 58.3025 46.5944 58.115C46.1648 57.9236 45.7917 57.6482 45.4753 57.2888C45.1589 56.9294 44.9128 56.4939 44.737 55.9822C44.5652 55.4705 44.4792 54.8923 44.4792 54.2478V53.7791C44.4792 53.1345 44.5652 52.5583 44.737 52.0505C44.9089 51.5388 45.1511 51.1033 45.4636 50.7439C45.78 50.3806 46.153 50.1052 46.5827 49.9177C47.0163 49.7263 47.4948 49.6306 48.0183 49.6306C48.5456 49.6306 49.0261 49.7263 49.4597 49.9177C49.8933 50.1052 50.2663 50.3806 50.5788 50.7439C50.8913 51.1033 51.1316 51.5388 51.2995 52.0505C51.4714 52.5583 51.5573 53.1345 51.5573 53.7791ZM50.0866 54.2478V53.7673C50.0866 53.2908 50.0398 52.8708 49.946 52.5076C49.8562 52.1404 49.7214 51.8337 49.5417 51.5876C49.3659 51.3376 49.1491 51.1501 48.8913 51.0251C48.6335 50.8962 48.3425 50.8318 48.0183 50.8318C47.6941 50.8318 47.405 50.8962 47.1511 51.0251C46.8972 51.1501 46.6804 51.3376 46.5007 51.5876C46.3249 51.8337 46.1902 52.1404 46.0964 52.5076C46.0027 52.8708 45.9558 53.2908 45.9558 53.7673V54.2478C45.9558 54.7244 46.0027 55.1462 46.0964 55.5134C46.1902 55.8806 46.3269 56.1912 46.5066 56.4451C46.6902 56.6951 46.9089 56.8845 47.1628 57.0134C47.4167 57.1384 47.7058 57.2009 48.03 57.2009C48.3581 57.2009 48.6491 57.1384 48.903 57.0134C49.1569 56.8845 49.3718 56.6951 49.5476 56.4451C49.7234 56.1912 49.8562 55.8806 49.946 55.5134C50.0398 55.1462 50.0866 54.7244 50.0866 54.2478ZM52.3015 57.5759C52.3015 57.3572 52.3757 57.1736 52.5241 57.0251C52.6726 56.8728 52.8737 56.7966 53.1277 56.7966C53.3855 56.7966 53.5866 56.8728 53.7312 57.0251C53.8796 57.1736 53.9538 57.3572 53.9538 57.5759C53.9538 57.7947 53.8796 57.9783 53.7312 58.1267C53.5866 58.2751 53.3855 58.3494 53.1277 58.3494C52.8737 58.3494 52.6726 58.2751 52.5241 58.1267C52.3757 57.9783 52.3015 57.7947 52.3015 57.5759Z" fill="#777777"/>
</g>
<defs>
<filter id="filter0_d_4_2355" x="0" y="0" width="70.093" height="78" filterUnits="userSpaceOnUse" color-interpolation-filters="sRGB">
<feFlood flood-opacity="0" result="BackgroundImageFix"/>
<feColorMatrix in="SourceAlpha" type="matrix" values="0 0 0 0 0 0 0 0 0 0 0 0 0 0 0 0 0 0 127 0" result="hardAlpha"/>
<feOffset dx="2" dy="2"/>
<feGaussianBlur stdDeviation="2"/>
<feComposite in2="hardAlpha" operator="out"/>
<feColorMatrix type="matrix" values="0 0 0 0 0 0 0 0 0 0 0 0 0 0 0 0 0 0 0.25 0"/>
<feBlend mode="normal" in2="BackgroundImageFix" result="effect1_dropShadow_4_2355"/>
<feBlend mode="normal" in="SourceGraphic" in2="effect1_dropShadow_4_2355" result="shape"/>
</filter>
</defs>
</svg>
