<svg width="63" height="70" viewBox="0 0 63 70" fill="none" xmlns="http://www.w3.org/2000/svg">
<path d="M5 0.5C2.51472 0.5 0.5 2.51472 0.5 5V65C0.5 67.4853 2.51472 69.5 5 69.5H57.093C59.5783 69.5 61.593 67.4853 61.593 65V5C61.593 2.51472 59.5783 0.5 57.093 0.5H5Z" fill="white" stroke="#ABABAB"/>
<rect x="7.32568" y="8.90698" width="34.7907" height="6.32558" rx="3.16279" fill="#ABABAB"/>
<rect x="7.32568" y="23.1396" width="47.4419" height="3.16279" rx="1.5814" fill="#ABABAB"/>
<rect x="7.32568" y="27.8838" width="47.4419" height="3.16279" rx="1.5814" fill="#ABABAB"/>
<rect x="7.32568" y="32.6279" width="28.4651" height="3.16279" rx="1.5814" fill="#ABABAB"/>
<rect x="37.3721" y="32.6279" width="17.3953" height="17.3953" rx="1" fill="#ABABAB"/>
<rect x="7.32568" y="37.3721" width="28.4651" height="3.16279" rx="1.5814" fill="#ABABAB"/>
<rect x="7.32568" y="42.1162" width="28.4651" height="3.16279" rx="1.5814" fill="#ABABAB"/>
<rect x="7.32568" y="46.8604" width="28.4651" height="3.16279" rx="1.5814" fill="#ABABAB"/>
<path d="M17.3296 63.0493L19.5738 64.8306L18.6187 65.6685L16.4156 63.9048L17.3296 63.0493ZM19.5913 59.686V60.1548C19.5913 60.7993 19.5074 61.3774 19.3394 61.8892C19.1714 62.4009 18.9312 62.8364 18.6187 63.1958C18.3062 63.5552 17.9331 63.8306 17.4995 64.022C17.066 64.2095 16.5855 64.3032 16.0581 64.3032C15.5347 64.3032 15.0562 64.2095 14.6226 64.022C14.1929 63.8306 13.8199 63.5552 13.5035 63.1958C13.187 62.8364 12.941 62.4009 12.7652 61.8892C12.5933 61.3774 12.5074 60.7993 12.5074 60.1548V59.686C12.5074 59.0415 12.5933 58.4653 12.7652 57.9575C12.937 57.4458 13.1792 57.0103 13.4917 56.6509C13.8081 56.2876 14.1812 56.0122 14.6109 55.8247C15.0445 55.6333 15.523 55.5376 16.0464 55.5376C16.5738 55.5376 17.0542 55.6333 17.4878 55.8247C17.9253 56.0122 18.3003 56.2876 18.6128 56.6509C18.9253 57.0103 19.1656 57.4458 19.3335 57.9575C19.5054 58.4653 19.5913 59.0415 19.5913 59.686ZM18.1148 60.1548V59.6743C18.1148 59.1978 18.0679 58.7778 17.9742 58.4146C17.8843 58.0474 17.7495 57.7407 17.5699 57.4946C17.3941 57.2446 17.1773 57.0571 16.9195 56.9321C16.6656 56.8032 16.3745 56.7388 16.0464 56.7388C15.7261 56.7388 15.439 56.8032 15.1851 56.9321C14.9312 57.0571 14.7144 57.2446 14.5347 57.4946C14.355 57.7407 14.2183 58.0474 14.1245 58.4146C14.0308 58.7778 13.9839 59.1978 13.9839 59.6743V60.1548C13.9839 60.6313 14.0308 61.0532 14.1245 61.4204C14.2183 61.7876 14.355 62.0981 14.5347 62.3521C14.7183 62.6021 14.937 62.7915 15.191 62.9204C15.4488 63.0454 15.7378 63.1079 16.0581 63.1079C16.3863 63.1079 16.6773 63.0454 16.9312 62.9204C17.1851 62.7915 17.3999 62.6021 17.5757 62.3521C17.7515 62.0981 17.8843 61.7876 17.9742 61.4204C18.0679 61.0532 18.1148 60.6313 18.1148 60.1548ZM25.8726 55.6548H27.3374V61.356C27.3374 62.0044 27.1968 62.5474 26.9156 62.9849C26.6343 63.4224 26.2515 63.7524 25.7671 63.9751C25.2867 64.1938 24.7495 64.3032 24.1558 64.3032C23.5425 64.3032 22.9956 64.1938 22.5152 63.9751C22.0347 63.7524 21.6558 63.4224 21.3785 62.9849C21.105 62.5474 20.9683 62.0044 20.9683 61.356V55.6548H22.4331V61.356C22.4331 61.7661 22.5035 62.104 22.6441 62.3696C22.7847 62.6313 22.9839 62.8247 23.2417 62.9497C23.4995 63.0747 23.8042 63.1372 24.1558 63.1372C24.5074 63.1372 24.8101 63.0747 25.064 62.9497C25.3218 62.8247 25.521 62.6313 25.6617 62.3696C25.8023 62.104 25.8726 61.7661 25.8726 61.356V55.6548ZM35.7398 59.686V60.1548C35.7398 60.7993 35.6558 61.3774 35.4878 61.8892C35.3199 62.4009 35.0796 62.8364 34.7671 63.1958C34.4585 63.5552 34.0874 63.8306 33.6538 64.022C33.2202 64.2095 32.7398 64.3032 32.2124 64.3032C31.689 64.3032 31.2105 64.2095 30.7769 64.022C30.3472 63.8306 29.9742 63.5552 29.6577 63.1958C29.3413 62.8364 29.0952 62.4009 28.9195 61.8892C28.7476 61.3774 28.6617 60.7993 28.6617 60.1548V59.686C28.6617 59.0415 28.7476 58.4653 28.9195 57.9575C29.0913 57.4458 29.3335 57.0103 29.646 56.6509C29.9624 56.2876 30.3355 56.0122 30.7652 55.8247C31.1988 55.6333 31.6773 55.5376 32.2007 55.5376C32.7281 55.5376 33.2085 55.6333 33.6421 55.8247C34.0757 56.0122 34.4488 56.2876 34.7613 56.6509C35.0738 57.0103 35.314 57.4458 35.482 57.9575C35.6538 58.4653 35.7398 59.0415 35.7398 59.686ZM34.2691 60.1548V59.6743C34.2691 59.1978 34.2222 58.7778 34.1285 58.4146C34.0386 58.0474 33.9038 57.7407 33.7242 57.4946C33.5484 57.2446 33.3316 57.0571 33.0738 56.9321C32.816 56.8032 32.5249 56.7388 32.2007 56.7388C31.8765 56.7388 31.5874 56.8032 31.3335 56.9321C31.0796 57.0571 30.8628 57.2446 30.6831 57.4946C30.5074 57.7407 30.3726 58.0474 30.2788 58.4146C30.1851 58.7778 30.1382 59.1978 30.1382 59.6743V60.1548C30.1382 60.6313 30.1851 61.0532 30.2788 61.4204C30.3726 61.7876 30.5093 62.0981 30.689 62.3521C30.8726 62.6021 31.0913 62.7915 31.3452 62.9204C31.5992 63.0454 31.8882 63.1079 32.2124 63.1079C32.5406 63.1079 32.8316 63.0454 33.0855 62.9204C33.3394 62.7915 33.5542 62.6021 33.73 62.3521C33.9058 62.0981 34.0386 61.7876 34.1285 61.4204C34.2222 61.0532 34.2691 60.6313 34.2691 60.1548ZM40.4273 55.6548V64.186H38.9683V55.6548H40.4273ZM43.105 55.6548V56.8267H36.314V55.6548H43.105ZM49.814 63.02V64.186H45.2847V63.02H49.814ZM45.7007 55.6548V64.186H44.23V55.6548H45.7007ZM49.2222 59.2173V60.3657H45.2847V59.2173H49.2222ZM49.7847 55.6548V56.8267H45.2847V55.6548H49.7847Z" fill="#777777"/>
</svg>
