<svg width="77" height="40" viewBox="0 0 77 40" fill="none" xmlns="http://www.w3.org/2000/svg">
<path d="M5 0.5C2.51472 0.5 0.5 2.51472 0.5 5V35C0.5 37.4853 2.51472 39.5 5 39.5H72C74.4853 39.5 76.5 37.4853 76.5 35V5C76.5 2.51472 74.4853 0.5 72 0.5H5Z" fill="white" stroke="#ABABAB"/>
<rect x="5" y="5" width="41.1163" height="6.32558" rx="3.16279" fill="#ABABAB"/>
<rect x="5" y="17.6514" width="31.6279" height="3.16279" rx="1.5814" fill="#ABABAB"/>
<rect x="5" y="22.3955" width="31.6279" height="3.16279" rx="1.5814" fill="#ABABAB"/>
<rect x="5" y="27.1396" width="31.6279" height="3.16279" rx="1.5814" fill="#ABABAB"/>
<rect x="5" y="31.8838" width="31.6279" height="3.16279" rx="1.5814" fill="#ABABAB"/>
<rect x="39.791" y="17.6514" width="31.6279" height="3.16279" rx="1.5814" fill="#ABABAB"/>
<rect x="39.791" y="22.3955" width="31.6279" height="3.16279" rx="1.5814" fill="#ABABAB"/>
<rect x="39.791" y="27.1396" width="31.6279" height="3.16279" rx="1.5814" fill="#ABABAB"/>
<rect x="39.791" y="31.8838" width="31.6279" height="3.16279" rx="1.5814" fill="#ABABAB"/>
</svg>
