<svg width="78" height="70" viewBox="0 0 78 70" fill="none" xmlns="http://www.w3.org/2000/svg">
<path d="M5 0.5C2.51472 0.5 0.5 2.51472 0.5 5V65C0.5 67.4853 2.51472 69.5 5 69.5H72.907C75.3923 69.5 77.407 67.4853 77.407 65V5C77.407 2.51472 75.3923 0.5 72.907 0.5H5Z" fill="white" stroke="#ABABAB"/>
<rect x="5.74414" y="10.4883" width="41.1163" height="6.32558" rx="3.16279" fill="#ABABAB"/>
<rect x="5.74414" y="23.1396" width="31.6279" height="3.16279" rx="1.5814" fill="#ABABAB"/>
<rect x="5.74414" y="27.8838" width="31.6279" height="3.16279" rx="1.5814" fill="#ABABAB"/>
<rect x="5.74414" y="32.6279" width="31.6279" height="3.16279" rx="1.5814" fill="#ABABAB"/>
<rect x="5.74414" y="37.3721" width="31.6279" height="3.16279" rx="1.5814" fill="#ABABAB"/>
<rect x="5.74414" y="42.1162" width="31.6279" height="3.16279" rx="1.5814" fill="#ABABAB"/>
<rect x="5.74414" y="46.8604" width="31.6279" height="3.16279" rx="1.5814" fill="#ABABAB"/>
<rect x="40.5349" y="23.1396" width="31.6279" height="3.16279" rx="1.5814" fill="#ABABAB"/>
<rect x="40.5349" y="27.8838" width="31.6279" height="3.16279" rx="1.5814" fill="#ABABAB"/>
<rect x="40.5349" y="32.6279" width="31.6279" height="3.16279" rx="1.5814" fill="#ABABAB"/>
<rect x="40.5349" y="37.3721" width="31.6279" height="3.16279" rx="1.5814" fill="#ABABAB"/>
<rect x="40.5349" y="42.1162" width="31.6279" height="3.16279" rx="1.5814" fill="#ABABAB"/>
<rect x="40.5349" y="46.8604" width="31.6279" height="3.16279" rx="1.5814" fill="#ABABAB"/>
<path d="M10.9399 55.6548V64.186H9.48088V55.6548H10.9399ZM13.6176 55.6548V56.8267H6.82659V55.6548H13.6176ZM16.3129 55.6548V64.186H14.8422V55.6548H16.3129ZM18.7387 55.6548H20.0512L22.518 62.2349L24.9789 55.6548H26.2914L23.0336 64.186H21.9907L18.7387 55.6548ZM18.141 55.6548H19.3891L19.6059 61.3501V64.186H18.141V55.6548ZM25.641 55.6548H26.8949V64.186H25.4242V61.3501L25.641 55.6548ZM34.225 63.02V64.186H29.6957V63.02H34.225ZM30.1117 55.6548V64.186H28.641V55.6548H30.1117ZM33.6332 59.2173V60.3657H29.6957V59.2173H33.6332ZM34.1957 55.6548V56.8267H29.6957V55.6548H34.1957ZM39.9145 61.9888C39.9145 61.813 39.8871 61.6567 39.8324 61.52C39.7817 61.3833 39.6899 61.2583 39.5571 61.145C39.4242 61.0317 39.2367 60.9224 38.9946 60.8169C38.7563 60.7075 38.4516 60.5962 38.0805 60.4829C37.6742 60.3579 37.2992 60.2192 36.9555 60.0669C36.6157 59.9106 36.3188 59.731 36.0649 59.5278C35.811 59.3208 35.6137 59.0845 35.4731 58.8188C35.3324 58.5493 35.2621 58.2388 35.2621 57.8872C35.2621 57.5396 35.3344 57.2231 35.4789 56.938C35.6274 56.6528 35.8364 56.4067 36.1059 56.1997C36.3793 55.9888 36.7016 55.8267 37.0727 55.7134C37.4438 55.5962 37.8539 55.5376 38.3032 55.5376C38.936 55.5376 39.4809 55.6548 39.9379 55.8892C40.3989 56.1235 40.7524 56.438 40.9985 56.8325C41.2485 57.2271 41.3735 57.6626 41.3735 58.1392H39.9145C39.9145 57.8579 39.8539 57.6099 39.7328 57.395C39.6157 57.1763 39.436 57.0044 39.1938 56.8794C38.9555 56.7544 38.6528 56.6919 38.2856 56.6919C37.9379 56.6919 37.6489 56.7446 37.4184 56.8501C37.1879 56.9556 37.016 57.0981 36.9028 57.2778C36.7895 57.4575 36.7328 57.6606 36.7328 57.8872C36.7328 58.0474 36.7699 58.1938 36.8442 58.3267C36.9184 58.4556 37.0317 58.5767 37.184 58.6899C37.3364 58.7993 37.5278 58.9028 37.7582 59.0005C37.9887 59.0981 38.2602 59.1919 38.5727 59.2817C39.0453 59.4224 39.4574 59.5786 39.809 59.7505C40.1606 59.9185 40.4535 60.1099 40.6879 60.3247C40.9223 60.5396 41.0981 60.7837 41.2153 61.0571C41.3324 61.3267 41.391 61.6333 41.391 61.9771C41.391 62.3364 41.3188 62.6606 41.1742 62.9497C41.0297 63.2349 40.8227 63.479 40.5532 63.6821C40.2875 63.8813 39.9672 64.0356 39.5922 64.145C39.2211 64.2505 38.8071 64.3032 38.35 64.3032C37.9399 64.3032 37.5356 64.2485 37.1371 64.1392C36.7426 64.0298 36.3832 63.8638 36.059 63.6411C35.7348 63.4146 35.477 63.1333 35.2856 62.7974C35.0942 62.4575 34.9985 62.061 34.9985 61.6079H36.4692C36.4692 61.8853 36.516 62.1216 36.6098 62.3169C36.7074 62.5122 36.8422 62.6724 37.0141 62.7974C37.186 62.9185 37.3852 63.0083 37.6117 63.0669C37.8422 63.1255 38.0883 63.1548 38.35 63.1548C38.6938 63.1548 38.9809 63.106 39.2114 63.0083C39.4457 62.9106 39.6215 62.7739 39.7387 62.5981C39.8559 62.4224 39.9145 62.2192 39.9145 61.9888ZM48.3285 59.2173V60.3833H43.7992V59.2173H48.3285ZM44.1625 55.6548V64.186H42.6918V55.6548H44.1625ZM49.4594 55.6548V64.186H47.9946V55.6548H49.4594ZM56.7953 63.02V64.186H52.266V63.02H56.7953ZM52.6821 55.6548V64.186H51.2114V55.6548H52.6821ZM56.2035 59.2173V60.3657H52.266V59.2173H56.2035ZM56.766 55.6548V56.8267H52.266V55.6548H56.766ZM63.5805 63.02V64.186H59.0512V63.02H63.5805ZM59.4672 55.6548V64.186H57.9965V55.6548H59.4672ZM62.9887 59.2173V60.3657H59.0512V59.2173H62.9887ZM63.5512 55.6548V56.8267H59.0512V55.6548H63.5512ZM68.4086 55.6548V64.186H66.9496V55.6548H68.4086ZM71.0864 55.6548V56.8267H64.2953V55.6548H71.0864Z" fill="#777777"/>
</svg>
