<svg width="100" height="100" viewBox="0 0 100 100" fill="none" xmlns="http://www.w3.org/2000/svg">
<path d="M26.7708 77.9167C21.9792 77.9167 17.9167 76.2326 14.5833 72.8646C11.25 69.4965 9.58333 65.4167 9.58333 60.625C9.58333 56.0417 11.25 51.9965 14.5833 48.4896C17.9167 44.9826 21.9444 43.2639 26.6667 43.3333C27.2222 37.2917 29.7396 32.2396 34.2187 28.1771C38.6979 24.1146 43.993 22.0833 50.1042 22.0833C56.5625 22.0833 62.0486 24.3924 66.5625 29.0104C71.0764 33.6285 73.3333 39.2014 73.3333 45.7292V51.9792H76.6667C80.4861 51.7708 83.7326 52.9167 86.4062 55.4167C89.0799 57.9167 90.4167 61.0764 90.4167 64.8958C90.4167 68.5069 89.1493 71.5799 86.6146 74.1146C84.0799 76.6493 81.007 77.9167 77.3958 77.9167H26.7708ZM26.7708 75.625H77.3958C80.382 75.625 82.9167 74.5833 85 72.5C87.0833 70.4167 88.125 67.8819 88.125 64.8958C88.125 61.9792 87.0833 59.4792 85 57.3958C82.9167 55.3125 80.382 54.2708 77.3958 54.2708H71.0417V45.7292C71.0417 39.8264 68.9931 34.7917 64.8958 30.625C60.7986 26.4583 55.7986 24.375 49.8958 24.375C44.0625 24.375 39.0799 26.4583 34.9479 30.625C30.816 34.7917 28.75 39.8264 28.75 45.7292H26.6667C22.5694 45.7292 19.0799 47.1875 16.1979 50.1042C13.316 53.0208 11.875 56.5625 11.875 60.7292C11.875 64.8264 13.3333 68.3333 16.25 71.25C19.1667 74.1667 22.6736 75.625 26.7708 75.625Z" fill="black"/>
<path d="M38.0224 65C37.1642 65 36.4459 64.7202 35.8675 64.1606C35.2892 63.6011 35 62.9061 35 62.0758V56.9314H36.2313V62.0758C36.2313 62.509 36.4179 62.9061 36.791 63.2671C37.1642 63.6282 37.5746 63.8087 38.0224 63.8087H61.9776C62.4254 63.8087 62.8358 63.6282 63.209 63.2671C63.5821 62.9061 63.7687 62.509 63.7687 62.0758V56.9314H65V62.0758C65 62.9061 64.7108 63.6011 64.1325 64.1606C63.5541 64.7202 62.8358 65 61.9776 65H38.0224ZM49.3843 57.0939V37.3285L44.0672 42.4188L43.1716 41.6065L50 35L56.8284 41.6065L55.9328 42.4188L50.6157 37.3285V57.0939H49.3843Z" fill="#FCAF17"/>
</svg>
