<svg width="44" height="21" viewBox="0 0 44 21" fill="none" xmlns="http://www.w3.org/2000/svg">
<rect x="0.5" y="0.5" width="43" height="20" rx="3.5" fill="url(#paint0_radial_401_292)" stroke="#BE0C0C"/>
<g filter="url(#filter0_d_401_292)">
<path d="M8.64258 12.4219L10.3359 6.46875H11.1562L10.6816 8.7832L8.85938 15H8.04492L8.64258 12.4219ZM6.89062 6.46875L8.23828 12.3047L8.64258 15H7.83398L5.76562 6.46875H6.89062ZM13.3477 12.2988L14.666 6.46875H15.7969L13.7344 15H12.9258L13.3477 12.2988ZM11.2793 6.46875L12.9258 12.4219L13.5234 15H12.709L10.9512 8.7832L10.4707 6.46875H11.2793ZM19.9512 7.22461L17.127 15H15.9727L19.2246 6.46875H19.9688L19.9512 7.22461ZM22.3184 15L19.4883 7.22461L19.4707 6.46875H20.2148L23.4785 15H22.3184ZM22.1719 11.8418V12.7676H17.3789V11.8418H22.1719ZM24.6211 6.46875H27.4453C28.0859 6.46875 28.627 6.56641 29.0684 6.76172C29.5137 6.95703 29.8516 7.24609 30.082 7.62891C30.3164 8.00781 30.4336 8.47461 30.4336 9.0293C30.4336 9.41992 30.3535 9.77734 30.1934 10.1016C30.0371 10.4219 29.8105 10.6953 29.5137 10.9219C29.2207 11.1445 28.8691 11.3105 28.459 11.4199L28.1426 11.543H25.4883L25.4766 10.623H27.4805C27.8867 10.623 28.2246 10.5527 28.4941 10.4121C28.7637 10.2676 28.9668 10.0742 29.1035 9.83203C29.2402 9.58984 29.3086 9.32227 29.3086 9.0293C29.3086 8.70117 29.2441 8.41406 29.1152 8.16797C28.9863 7.92188 28.7832 7.73242 28.5059 7.59961C28.2324 7.46289 27.8789 7.39453 27.4453 7.39453H25.752V15H24.6211V6.46875ZM29.6074 15L27.5332 11.1328L28.7109 11.127L30.8145 14.9297V15H29.6074ZM38.5781 6.46875V15H37.4414L33.1465 8.41992V15H32.0156V6.46875H33.1465L37.459 13.0664V6.46875H38.5781Z" fill="white"/>
</g>
<defs>
<filter id="filter0_d_401_292" x="3.76562" y="6.46875" width="36.8125" height="12.5312" filterUnits="userSpaceOnUse" color-interpolation-filters="sRGB">
<feFlood flood-opacity="0" result="BackgroundImageFix"/>
<feColorMatrix in="SourceAlpha" type="matrix" values="0 0 0 0 0 0 0 0 0 0 0 0 0 0 0 0 0 0 127 0" result="hardAlpha"/>
<feOffset dy="2"/>
<feGaussianBlur stdDeviation="1"/>
<feComposite in2="hardAlpha" operator="out"/>
<feColorMatrix type="matrix" values="0 0 0 0 0 0 0 0 0 0 0 0 0 0 0 0 0 0 0.45 0"/>
<feBlend mode="normal" in2="BackgroundImageFix" result="effect1_dropShadow_401_292"/>
<feBlend mode="normal" in="SourceGraphic" in2="effect1_dropShadow_401_292" result="shape"/>
</filter>
<radialGradient id="paint0_radial_401_292" cx="0" cy="0" r="1" gradientUnits="userSpaceOnUse" gradientTransform="translate(22 10.5) rotate(90) scale(10.5 22)">
<stop stop-color="#EF7373"/>
<stop offset="1" stop-color="#FF1616"/>
</radialGradient>
</defs>
</svg>
